G04*
G04 #@! TF.GenerationSoftware,Altium Limited,Altium Designer,21.7.2 (23)*
G04*
G04 Layer_Color=8388736*
%FSLAX25Y25*%
%MOIN*%
G70*
G04*
G04 #@! TF.SameCoordinates,F55E2E5B-1DD0-4EDA-8E00-308EEE6F08C1*
G04*
G04*
G04 #@! TF.FilePolarity,Negative*
G04*
G01*
G75*
%ADD36R,0.09461X0.04934*%
%ADD37R,0.04934X0.04737*%
%ADD38R,0.03950X0.04343*%
%ADD39R,0.10642X0.03800*%
%ADD40R,0.02178X0.01981*%
%ADD41R,0.01981X0.02178*%
G04:AMPARAMS|DCode=42|XSize=37.13mil|YSize=16.66mil|CornerRadius=5.08mil|HoleSize=0mil|Usage=FLASHONLY|Rotation=270.000|XOffset=0mil|YOffset=0mil|HoleType=Round|Shape=RoundedRectangle|*
%AMROUNDEDRECTD42*
21,1,0.03713,0.00650,0,0,270.0*
21,1,0.02697,0.01666,0,0,270.0*
1,1,0.01016,-0.00325,-0.01348*
1,1,0.01016,-0.00325,0.01348*
1,1,0.01016,0.00325,0.01348*
1,1,0.01016,0.00325,-0.01348*
%
%ADD42ROUNDEDRECTD42*%
G04:AMPARAMS|DCode=43|XSize=37.13mil|YSize=16.66mil|CornerRadius=5.08mil|HoleSize=0mil|Usage=FLASHONLY|Rotation=180.000|XOffset=0mil|YOffset=0mil|HoleType=Round|Shape=RoundedRectangle|*
%AMROUNDEDRECTD43*
21,1,0.03713,0.00650,0,0,180.0*
21,1,0.02697,0.01666,0,0,180.0*
1,1,0.01016,-0.01348,0.00325*
1,1,0.01016,0.01348,0.00325*
1,1,0.01016,0.01348,-0.00325*
1,1,0.01016,-0.01348,-0.00325*
%
%ADD43ROUNDEDRECTD43*%
%ADD44R,0.11824X0.11824*%
%ADD45R,0.03162X0.02769*%
%ADD46R,0.05131X0.03162*%
%ADD47R,0.04343X0.03950*%
%ADD48R,0.07300X0.06800*%
%ADD49C,0.02800*%
G36*
X251059Y68367D02*
X251110Y68357D01*
X251160Y68340D01*
X251207Y68317D01*
X251250Y68288D01*
X251290Y68253D01*
X251324Y68214D01*
X251353Y68170D01*
X251377Y68124D01*
X251394Y68074D01*
X251404Y68022D01*
X251407Y67970D01*
Y58371D01*
X260317D01*
X260370Y58368D01*
X260421Y58357D01*
X260471Y58340D01*
X260518Y58317D01*
X260561Y58288D01*
X260601Y58254D01*
X260635Y58214D01*
X260665Y58170D01*
X260688Y58123D01*
X260704Y58074D01*
X260715Y58022D01*
X260718Y57970D01*
Y41970D01*
X260715Y41918D01*
X260704Y41866D01*
X260688Y41817D01*
X260665Y41770D01*
X260635Y41726D01*
X260601Y41687D01*
X260561Y41652D01*
X260518Y41623D01*
X260471Y41600D01*
X260421Y41583D01*
X260370Y41573D01*
X260317Y41569D01*
X246006D01*
X245954Y41573D01*
X245902Y41583D01*
X245853Y41600D01*
X245806Y41623D01*
X245762Y41652D01*
X245723Y41687D01*
X245688Y41726D01*
X245659Y41770D01*
X245636Y41817D01*
X245619Y41866D01*
X245609Y41918D01*
X245605Y41970D01*
Y51569D01*
X235514D01*
X235462Y51573D01*
X235410Y51583D01*
X235361Y51600D01*
X235314Y51623D01*
X235270Y51652D01*
X235231Y51687D01*
X235196Y51726D01*
X235167Y51770D01*
X235144Y51817D01*
X235127Y51866D01*
X235117Y51918D01*
X235113Y51970D01*
Y67970D01*
X235117Y68022D01*
X235127Y68074D01*
X235144Y68124D01*
X235167Y68170D01*
X235196Y68214D01*
X235231Y68253D01*
X235270Y68288D01*
X235314Y68317D01*
X235361Y68340D01*
X235410Y68357D01*
X235462Y68367D01*
X235514Y68371D01*
X251006D01*
X251059Y68367D01*
D02*
G37*
G36*
X101452D02*
X101504Y68357D01*
X101553Y68340D01*
X101600Y68317D01*
X101644Y68288D01*
X101683Y68253D01*
X101718Y68214D01*
X101747Y68170D01*
X101770Y68124D01*
X101787Y68074D01*
X101797Y68022D01*
X101801Y67970D01*
Y58371D01*
X110711D01*
X110763Y58368D01*
X110815Y58357D01*
X110864Y58340D01*
X110911Y58317D01*
X110955Y58288D01*
X110995Y58254D01*
X111029Y58214D01*
X111058Y58170D01*
X111081Y58123D01*
X111098Y58074D01*
X111108Y58022D01*
X111112Y57970D01*
Y41970D01*
X111108Y41918D01*
X111098Y41866D01*
X111081Y41817D01*
X111058Y41770D01*
X111029Y41726D01*
X110995Y41687D01*
X110955Y41652D01*
X110911Y41623D01*
X110864Y41600D01*
X110815Y41583D01*
X110763Y41573D01*
X110711Y41569D01*
X96400D01*
X96348Y41573D01*
X96296Y41583D01*
X96247Y41600D01*
X96200Y41623D01*
X96156Y41652D01*
X96117Y41687D01*
X96082Y41726D01*
X96053Y41770D01*
X96030Y41817D01*
X96013Y41866D01*
X96003Y41918D01*
X95999Y41970D01*
Y51569D01*
X85908D01*
X85856Y51573D01*
X85804Y51583D01*
X85755Y51600D01*
X85707Y51623D01*
X85664Y51652D01*
X85624Y51687D01*
X85590Y51726D01*
X85561Y51770D01*
X85537Y51817D01*
X85521Y51866D01*
X85510Y51918D01*
X85507Y51970D01*
Y67970D01*
X85510Y68022D01*
X85521Y68074D01*
X85537Y68124D01*
X85561Y68170D01*
X85590Y68214D01*
X85624Y68253D01*
X85664Y68288D01*
X85707Y68317D01*
X85755Y68340D01*
X85804Y68357D01*
X85856Y68367D01*
X85908Y68371D01*
X101400D01*
X101452Y68367D01*
D02*
G37*
D36*
X103600Y100537D02*
D03*
Y112151D02*
D03*
X251906Y91537D02*
D03*
Y103151D02*
D03*
X278706Y59293D02*
D03*
Y70907D02*
D03*
D37*
X109604Y106344D02*
D03*
X245902Y97344D02*
D03*
X272702Y65100D02*
D03*
D38*
X229250Y97344D02*
D03*
X234762D02*
D03*
D39*
X172206Y122344D02*
D03*
X192206D02*
D03*
X172206Y117344D02*
D03*
X192206D02*
D03*
X172206Y112344D02*
D03*
X192206D02*
D03*
X172206Y107344D02*
D03*
X192206D02*
D03*
X172206Y102344D02*
D03*
X192206D02*
D03*
X172206Y75100D02*
D03*
X192206D02*
D03*
X172206Y70100D02*
D03*
X192206D02*
D03*
X172206Y65100D02*
D03*
X192206D02*
D03*
X172206Y60100D02*
D03*
X192206D02*
D03*
X172206Y55100D02*
D03*
X192206D02*
D03*
X22600Y75100D02*
D03*
X42600D02*
D03*
X22600Y70100D02*
D03*
X42600D02*
D03*
X22600Y65100D02*
D03*
X42600D02*
D03*
X22600Y60100D02*
D03*
X42600D02*
D03*
X22600Y55100D02*
D03*
X42600D02*
D03*
D40*
X210776Y91732D02*
D03*
Y93897D02*
D03*
X218006Y120161D02*
D03*
Y122327D02*
D03*
X227576Y106897D02*
D03*
Y104732D02*
D03*
X223476Y94797D02*
D03*
Y92632D02*
D03*
X230576Y104732D02*
D03*
Y106897D02*
D03*
X225076Y116732D02*
D03*
Y118897D02*
D03*
X214906Y120161D02*
D03*
Y122327D02*
D03*
X210776Y44487D02*
D03*
Y46653D02*
D03*
X218006Y72917D02*
D03*
Y75083D02*
D03*
X227576Y59653D02*
D03*
Y57487D02*
D03*
X223476Y47553D02*
D03*
Y45387D02*
D03*
X230576Y57487D02*
D03*
Y59653D02*
D03*
X225076Y69487D02*
D03*
Y71653D02*
D03*
X214906Y72917D02*
D03*
Y75083D02*
D03*
X61170Y44487D02*
D03*
Y46653D02*
D03*
X68400Y72917D02*
D03*
Y75083D02*
D03*
X77970Y59653D02*
D03*
Y57487D02*
D03*
X73870Y47553D02*
D03*
Y45387D02*
D03*
X80970Y57487D02*
D03*
Y59653D02*
D03*
X75470Y69487D02*
D03*
Y71653D02*
D03*
X65300Y72917D02*
D03*
Y75083D02*
D03*
D41*
X200594Y109114D02*
D03*
X202759D02*
D03*
X228494Y101614D02*
D03*
X230659D02*
D03*
X200594Y105714D02*
D03*
X202759D02*
D03*
X200594Y61870D02*
D03*
X202759D02*
D03*
X228494Y54370D02*
D03*
X230659D02*
D03*
X200594Y58470D02*
D03*
X202759D02*
D03*
X50987Y61870D02*
D03*
X53153D02*
D03*
X78887Y54370D02*
D03*
X81053D02*
D03*
X50987Y58470D02*
D03*
X53153D02*
D03*
D42*
X209965Y98860D02*
D03*
X213114D02*
D03*
X211539D02*
D03*
X216264D02*
D03*
X214689D02*
D03*
X217839D02*
D03*
X211539Y114568D02*
D03*
X209965D02*
D03*
X214689D02*
D03*
X213114D02*
D03*
X216264D02*
D03*
X220988Y98860D02*
D03*
X219413D02*
D03*
X220988Y114568D02*
D03*
X219413D02*
D03*
X217839D02*
D03*
X209965Y51616D02*
D03*
X213114D02*
D03*
X211539D02*
D03*
X216264D02*
D03*
X214689D02*
D03*
X217839D02*
D03*
X211539Y67324D02*
D03*
X209965D02*
D03*
X214689D02*
D03*
X213114D02*
D03*
X216264D02*
D03*
X220988Y51616D02*
D03*
X219413D02*
D03*
X220988Y67324D02*
D03*
X219413D02*
D03*
X217839D02*
D03*
X60358Y51616D02*
D03*
X63508D02*
D03*
X61933D02*
D03*
X66658D02*
D03*
X65083D02*
D03*
X68232D02*
D03*
X61933Y67324D02*
D03*
X60358D02*
D03*
X65083D02*
D03*
X63508D02*
D03*
X66658D02*
D03*
X71382Y51616D02*
D03*
X69807D02*
D03*
X71382Y67324D02*
D03*
X69807D02*
D03*
X68232D02*
D03*
D43*
X207622Y101202D02*
D03*
Y102777D02*
D03*
Y104352D02*
D03*
Y105927D02*
D03*
Y107502D02*
D03*
Y109076D02*
D03*
Y110651D02*
D03*
Y112226D02*
D03*
X223331Y101202D02*
D03*
Y105927D02*
D03*
Y104352D02*
D03*
Y107502D02*
D03*
Y102777D02*
D03*
Y110651D02*
D03*
Y109076D02*
D03*
Y112226D02*
D03*
X207622Y53958D02*
D03*
Y55533D02*
D03*
Y57108D02*
D03*
Y58683D02*
D03*
Y60258D02*
D03*
Y61832D02*
D03*
Y63407D02*
D03*
Y64982D02*
D03*
X223331Y53958D02*
D03*
Y58683D02*
D03*
Y57108D02*
D03*
Y60258D02*
D03*
Y55533D02*
D03*
Y63407D02*
D03*
Y61832D02*
D03*
Y64982D02*
D03*
X58016Y53958D02*
D03*
Y55533D02*
D03*
Y57108D02*
D03*
Y58683D02*
D03*
Y60258D02*
D03*
Y61832D02*
D03*
Y63407D02*
D03*
Y64982D02*
D03*
X73724Y53958D02*
D03*
Y58683D02*
D03*
Y57108D02*
D03*
Y60258D02*
D03*
Y55533D02*
D03*
Y63407D02*
D03*
Y61832D02*
D03*
Y64982D02*
D03*
D44*
X215476Y106714D02*
D03*
X215476Y59470D02*
D03*
X65870D02*
D03*
D45*
X219472Y94019D02*
D03*
X215141D02*
D03*
Y90869D02*
D03*
X219472D02*
D03*
X219472Y46775D02*
D03*
X215141D02*
D03*
Y43625D02*
D03*
X219472D02*
D03*
X69865Y46775D02*
D03*
X65535D02*
D03*
Y43625D02*
D03*
X69865D02*
D03*
D46*
X229276Y110958D02*
D03*
Y116470D02*
D03*
X229276Y63714D02*
D03*
Y69226D02*
D03*
X79670Y63714D02*
D03*
Y69226D02*
D03*
D47*
X228306Y50256D02*
D03*
Y44744D02*
D03*
X78700Y50256D02*
D03*
Y44744D02*
D03*
D48*
X260256Y44970D02*
D03*
Y54970D02*
D03*
Y64970D02*
D03*
X236756D02*
D03*
X236754Y54970D02*
D03*
X236756Y44970D02*
D03*
X110650D02*
D03*
Y54970D02*
D03*
Y64970D02*
D03*
X87150D02*
D03*
X87148Y54970D02*
D03*
X87150Y44970D02*
D03*
D49*
X210976Y106714D02*
D03*
X215476Y102214D02*
D03*
Y106714D02*
D03*
Y111214D02*
D03*
X219976Y106714D02*
D03*
X210976Y59470D02*
D03*
X215476Y54970D02*
D03*
Y59470D02*
D03*
Y63970D02*
D03*
X219976Y59470D02*
D03*
X61370D02*
D03*
X65870Y54970D02*
D03*
Y59470D02*
D03*
Y63970D02*
D03*
X70370Y59470D02*
D03*
M02*
