G04*
G04 #@! TF.GenerationSoftware,Altium Limited,Altium Designer,21.7.2 (23)*
G04*
G04 Layer_Color=8421504*
%FSLAX25Y25*%
%MOIN*%
G70*
G04*
G04 #@! TF.SameCoordinates,F55E2E5B-1DD0-4EDA-8E00-308EEE6F08C1*
G04*
G04*
G04 #@! TF.FilePolarity,Positive*
G04*
G01*
G75*
%ADD11R,0.08661X0.04134*%
%ADD12R,0.04134X0.03937*%
%ADD13R,0.03937X0.03937*%
%ADD15R,0.03150X0.03543*%
%ADD16R,0.09843X0.03000*%
%ADD17R,0.01378X0.01181*%
%ADD18R,0.01181X0.01378*%
G04:AMPARAMS|DCode=19|XSize=29.13mil|YSize=8.66mil|CornerRadius=1.08mil|HoleSize=0mil|Usage=FLASHONLY|Rotation=270.000|XOffset=0mil|YOffset=0mil|HoleType=Round|Shape=RoundedRectangle|*
%AMROUNDEDRECTD19*
21,1,0.02913,0.00650,0,0,270.0*
21,1,0.02697,0.00866,0,0,270.0*
1,1,0.00217,-0.00325,-0.01348*
1,1,0.00217,-0.00325,0.01348*
1,1,0.00217,0.00325,0.01348*
1,1,0.00217,0.00325,-0.01348*
%
%ADD19ROUNDEDRECTD19*%
G04:AMPARAMS|DCode=20|XSize=29.13mil|YSize=8.66mil|CornerRadius=1.08mil|HoleSize=0mil|Usage=FLASHONLY|Rotation=180.000|XOffset=0mil|YOffset=0mil|HoleType=Round|Shape=RoundedRectangle|*
%AMROUNDEDRECTD20*
21,1,0.02913,0.00650,0,0,180.0*
21,1,0.02697,0.00866,0,0,180.0*
1,1,0.00217,-0.01348,0.00325*
1,1,0.00217,0.01348,0.00325*
1,1,0.00217,0.01348,-0.00325*
1,1,0.00217,-0.01348,-0.00325*
%
%ADD20ROUNDEDRECTD20*%
%ADD22R,0.02362X0.01968*%
%ADD23R,0.04331X0.02362*%
%ADD28R,0.03543X0.03150*%
%ADD29R,0.06500X0.06000*%
G36*
X220713Y107108D02*
X215870D01*
Y111950D01*
X220713D01*
Y107108D01*
D02*
G37*
G36*
X215083D02*
X210240D01*
Y111950D01*
X215083D01*
Y107108D01*
D02*
G37*
G36*
X220713Y101478D02*
X215870D01*
Y106321D01*
X220713D01*
Y101478D01*
D02*
G37*
G36*
X215083D02*
X210240D01*
Y106321D01*
X215083D01*
Y101478D01*
D02*
G37*
G36*
X220713Y59864D02*
X215870D01*
Y64706D01*
X220713D01*
Y59864D01*
D02*
G37*
G36*
X215083D02*
X210240D01*
Y64706D01*
X215083D01*
Y59864D01*
D02*
G37*
G36*
X71106D02*
X66264D01*
Y64706D01*
X71106D01*
Y59864D01*
D02*
G37*
G36*
X65476D02*
X60634D01*
Y64706D01*
X65476D01*
Y59864D01*
D02*
G37*
G36*
X220713Y54234D02*
X215870D01*
Y59076D01*
X220713D01*
Y54234D01*
D02*
G37*
G36*
X215083D02*
X210240D01*
Y59076D01*
X215083D01*
Y54234D01*
D02*
G37*
G36*
X71106D02*
X66264D01*
Y59076D01*
X71106D01*
Y54234D01*
D02*
G37*
G36*
X65476D02*
X60634D01*
Y59076D01*
X65476D01*
Y54234D01*
D02*
G37*
G36*
X251006Y57970D02*
X260317D01*
Y41970D01*
X246006D01*
Y51970D01*
X235514D01*
Y67970D01*
X251006D01*
Y57970D01*
D02*
G37*
G36*
X101400D02*
X110711D01*
Y41970D01*
X96400D01*
Y51970D01*
X85908D01*
Y67970D01*
X101400D01*
Y57970D01*
D02*
G37*
D11*
X103600Y100537D02*
D03*
Y112151D02*
D03*
X251906Y91537D02*
D03*
Y103151D02*
D03*
X278706Y59293D02*
D03*
Y70907D02*
D03*
D12*
X109604Y106344D02*
D03*
X245902Y97344D02*
D03*
X272702Y65100D02*
D03*
D13*
X120079Y106327D02*
D03*
Y59083D02*
D03*
D15*
X229250Y97344D02*
D03*
X234762D02*
D03*
D16*
X172206Y122344D02*
D03*
X192206D02*
D03*
X172206Y117344D02*
D03*
X192206D02*
D03*
X172206Y112344D02*
D03*
X192206D02*
D03*
X172206Y107344D02*
D03*
X192206D02*
D03*
X172206Y102344D02*
D03*
X192206D02*
D03*
X172206Y75100D02*
D03*
X192206D02*
D03*
X172206Y70100D02*
D03*
X192206D02*
D03*
X172206Y65100D02*
D03*
X192206D02*
D03*
X172206Y60100D02*
D03*
X192206D02*
D03*
X172206Y55100D02*
D03*
X192206D02*
D03*
X22600Y75100D02*
D03*
X42600D02*
D03*
X22600Y70100D02*
D03*
X42600D02*
D03*
X22600Y65100D02*
D03*
X42600D02*
D03*
X22600Y60100D02*
D03*
X42600D02*
D03*
X22600Y55100D02*
D03*
X42600D02*
D03*
D17*
X210776Y91732D02*
D03*
Y93897D02*
D03*
X218006Y120161D02*
D03*
Y122327D02*
D03*
X227576Y106897D02*
D03*
Y104732D02*
D03*
X223476Y94797D02*
D03*
Y92632D02*
D03*
X230576Y104732D02*
D03*
Y106897D02*
D03*
X225076Y116732D02*
D03*
Y118897D02*
D03*
X214906Y120161D02*
D03*
Y122327D02*
D03*
X210776Y44487D02*
D03*
Y46653D02*
D03*
X218006Y72917D02*
D03*
Y75083D02*
D03*
X227576Y59653D02*
D03*
Y57487D02*
D03*
X223476Y47553D02*
D03*
Y45387D02*
D03*
X230576Y57487D02*
D03*
Y59653D02*
D03*
X225076Y69487D02*
D03*
Y71653D02*
D03*
X214906Y72917D02*
D03*
Y75083D02*
D03*
X61170Y44487D02*
D03*
Y46653D02*
D03*
X68400Y72917D02*
D03*
Y75083D02*
D03*
X77970Y59653D02*
D03*
Y57487D02*
D03*
X73870Y47553D02*
D03*
Y45387D02*
D03*
X80970Y57487D02*
D03*
Y59653D02*
D03*
X75470Y69487D02*
D03*
Y71653D02*
D03*
X65300Y72917D02*
D03*
Y75083D02*
D03*
D18*
X200594Y109114D02*
D03*
X202759D02*
D03*
X228494Y101614D02*
D03*
X230659D02*
D03*
X200594Y105714D02*
D03*
X202759D02*
D03*
X200594Y61870D02*
D03*
X202759D02*
D03*
X228494Y54370D02*
D03*
X230659D02*
D03*
X200594Y58470D02*
D03*
X202759D02*
D03*
X50987Y61870D02*
D03*
X53153D02*
D03*
X78887Y54370D02*
D03*
X81053D02*
D03*
X50987Y58470D02*
D03*
X53153D02*
D03*
D19*
X209965Y98860D02*
D03*
X213114D02*
D03*
X211539D02*
D03*
X216264D02*
D03*
X214689D02*
D03*
X217839D02*
D03*
X211539Y114568D02*
D03*
X209965D02*
D03*
X214689D02*
D03*
X213114D02*
D03*
X216264D02*
D03*
X220988Y98860D02*
D03*
X219413D02*
D03*
X220988Y114568D02*
D03*
X219413D02*
D03*
X217839D02*
D03*
X209965Y51616D02*
D03*
X213114D02*
D03*
X211539D02*
D03*
X216264D02*
D03*
X214689D02*
D03*
X217839D02*
D03*
X211539Y67324D02*
D03*
X209965D02*
D03*
X214689D02*
D03*
X213114D02*
D03*
X216264D02*
D03*
X220988Y51616D02*
D03*
X219413D02*
D03*
X220988Y67324D02*
D03*
X219413D02*
D03*
X217839D02*
D03*
X60358Y51616D02*
D03*
X63508D02*
D03*
X61933D02*
D03*
X66658D02*
D03*
X65083D02*
D03*
X68232D02*
D03*
X61933Y67324D02*
D03*
X60358D02*
D03*
X65083D02*
D03*
X63508D02*
D03*
X66658D02*
D03*
X71382Y51616D02*
D03*
X69807D02*
D03*
X71382Y67324D02*
D03*
X69807D02*
D03*
X68232D02*
D03*
D20*
X207622Y101202D02*
D03*
Y102777D02*
D03*
Y104352D02*
D03*
Y105927D02*
D03*
Y107502D02*
D03*
Y109076D02*
D03*
Y110651D02*
D03*
Y112226D02*
D03*
X223331Y101202D02*
D03*
Y105927D02*
D03*
Y104352D02*
D03*
Y107502D02*
D03*
Y102777D02*
D03*
Y110651D02*
D03*
Y109076D02*
D03*
Y112226D02*
D03*
X207622Y53958D02*
D03*
Y55533D02*
D03*
Y57108D02*
D03*
Y58683D02*
D03*
Y60258D02*
D03*
Y61832D02*
D03*
Y63407D02*
D03*
Y64982D02*
D03*
X223331Y53958D02*
D03*
Y58683D02*
D03*
Y57108D02*
D03*
Y60258D02*
D03*
Y55533D02*
D03*
Y63407D02*
D03*
Y61832D02*
D03*
Y64982D02*
D03*
X58016Y53958D02*
D03*
Y55533D02*
D03*
Y57108D02*
D03*
Y58683D02*
D03*
Y60258D02*
D03*
Y61832D02*
D03*
Y63407D02*
D03*
Y64982D02*
D03*
X73724Y53958D02*
D03*
Y58683D02*
D03*
Y57108D02*
D03*
Y60258D02*
D03*
Y55533D02*
D03*
Y63407D02*
D03*
Y61832D02*
D03*
Y64982D02*
D03*
D22*
X219472Y94019D02*
D03*
X215141D02*
D03*
Y90869D02*
D03*
X219472D02*
D03*
X219472Y46775D02*
D03*
X215141D02*
D03*
Y43625D02*
D03*
X219472D02*
D03*
X69865Y46775D02*
D03*
X65535D02*
D03*
Y43625D02*
D03*
X69865D02*
D03*
D23*
X229276Y110958D02*
D03*
Y116470D02*
D03*
X229276Y63714D02*
D03*
Y69226D02*
D03*
X79670Y63714D02*
D03*
Y69226D02*
D03*
D28*
X228306Y50256D02*
D03*
Y44744D02*
D03*
X78700Y50256D02*
D03*
Y44744D02*
D03*
D29*
X260256Y44970D02*
D03*
Y54970D02*
D03*
Y64970D02*
D03*
X236756D02*
D03*
X236754Y54970D02*
D03*
X236756Y44970D02*
D03*
X110650D02*
D03*
Y54970D02*
D03*
Y64970D02*
D03*
X87150D02*
D03*
X87148Y54970D02*
D03*
X87150Y44970D02*
D03*
M02*
