G04*
G04 #@! TF.GenerationSoftware,Altium Limited,Altium Designer,21.7.2 (23)*
G04*
G04 Layer_Physical_Order=1*
G04 Layer_Color=255*
%FSLAX25Y25*%
%MOIN*%
G70*
G04*
G04 #@! TF.SameCoordinates,16A7C8A8-E98D-4737-908B-F8D707F188AB*
G04*
G04*
G04 #@! TF.FilePolarity,Positive*
G04*
G01*
G75*
%ADD10C,0.00050*%
%ADD11R,0.08661X0.04134*%
%ADD12R,0.04134X0.03937*%
%ADD13R,0.03937X0.03937*%
%ADD14C,0.00400*%
%ADD15C,0.00600*%
%ADD16R,0.03543X0.03150*%
%ADD17R,0.03858X0.02835*%
G04:AMPARAMS|DCode=18|XSize=29.13mil|YSize=8.66mil|CornerRadius=1.08mil|HoleSize=0mil|Usage=FLASHONLY|Rotation=180.000|XOffset=0mil|YOffset=0mil|HoleType=Round|Shape=RoundedRectangle|*
%AMROUNDEDRECTD18*
21,1,0.02913,0.00650,0,0,180.0*
21,1,0.02697,0.00866,0,0,180.0*
1,1,0.00217,-0.01348,0.00325*
1,1,0.00217,0.01348,0.00325*
1,1,0.00217,0.01348,-0.00325*
1,1,0.00217,-0.01348,-0.00325*
%
%ADD18ROUNDEDRECTD18*%
G04:AMPARAMS|DCode=19|XSize=29.13mil|YSize=8.66mil|CornerRadius=1.08mil|HoleSize=0mil|Usage=FLASHONLY|Rotation=270.000|XOffset=0mil|YOffset=0mil|HoleType=Round|Shape=RoundedRectangle|*
%AMROUNDEDRECTD19*
21,1,0.02913,0.00650,0,0,270.0*
21,1,0.02697,0.00866,0,0,270.0*
1,1,0.00217,-0.00325,-0.01348*
1,1,0.00217,-0.00325,0.01348*
1,1,0.00217,0.00325,0.01348*
1,1,0.00217,0.00325,-0.01348*
%
%ADD19ROUNDEDRECTD19*%
%ADD20R,0.11024X0.11024*%
%ADD21R,0.01378X0.01181*%
%ADD22R,0.01181X0.01378*%
%ADD23R,0.02362X0.01968*%
%ADD24R,0.04331X0.02362*%
%ADD25R,0.09843X0.03000*%
%ADD26C,0.00800*%
%ADD27C,0.01000*%
%ADD28R,0.06500X0.06000*%
%ADD29C,0.02000*%
%ADD30C,0.02400*%
G36*
X194812Y204930D02*
X195043Y203767D01*
X195198Y202591D01*
X195276Y201408D01*
Y200815D01*
X195866D01*
X195753Y198764D01*
X195416Y196738D01*
X194859Y194761D01*
X194088Y192857D01*
X193113Y191049D01*
X191946Y189358D01*
X190600Y187807D01*
X189093Y186411D01*
X187441Y185190D01*
X185665Y184158D01*
X183787Y183326D01*
X181829Y182705D01*
X179815Y182303D01*
X177768Y182124D01*
X175715Y182171D01*
X173679Y182442D01*
X171685Y182936D01*
X169757Y183644D01*
X167918Y184561D01*
X166191Y185673D01*
X164597Y186968D01*
X163154Y188430D01*
X161880Y190041D01*
X160791Y191783D01*
X159899Y193633D01*
X159215Y195570D01*
X158699Y197862D01*
X156693D01*
Y203768D01*
X164370D01*
Y200827D01*
X164370Y200781D01*
X164379Y200342D01*
X164535Y198768D01*
X164884Y197227D01*
X165351Y195901D01*
X165962Y194635D01*
X166707Y193444D01*
X167578Y192341D01*
X168566Y191341D01*
X169657Y190455D01*
X170838Y189694D01*
X172096Y189067D01*
X173415Y188582D01*
X174780Y188244D01*
X176173Y188058D01*
X177578Y188026D01*
X178978Y188149D01*
X180356Y188424D01*
X181696Y188849D01*
X182981Y189418D01*
X184196Y190124D01*
X185326Y190960D01*
X186358Y191915D01*
X187278Y192976D01*
X188077Y194133D01*
X188744Y195370D01*
X189271Y196673D01*
X189653Y198025D01*
X189883Y199412D01*
X189961Y200815D01*
X190551D01*
X190544Y201253D01*
X190487Y202127D01*
X190372Y202996D01*
X190201Y203855D01*
X190095Y204280D01*
X194659Y205502D01*
X194812Y204930D01*
D02*
G37*
G36*
X130709Y165879D02*
X116429D01*
X116070Y165879D01*
X115929Y166321D01*
Y167131D01*
X115929Y167131D01*
X115929D01*
X116091Y167576D01*
X116159Y167677D01*
X116268Y168224D01*
X116159Y168770D01*
X115849Y169233D01*
X115386Y169542D01*
X114840Y169651D01*
X114294Y169542D01*
X113831Y169233D01*
X113521Y168770D01*
X113413Y168224D01*
X113521Y167677D01*
X113584Y167583D01*
X113751Y167131D01*
X113751Y167131D01*
X113751Y167131D01*
Y165466D01*
X113751Y165150D01*
X113751Y164650D01*
Y162985D01*
X114753D01*
X114789Y162961D01*
X115102Y162899D01*
X115254Y162445D01*
Y160415D01*
X115254Y160415D01*
X114754Y160216D01*
X114443Y160345D01*
X112089D01*
X111722Y160440D01*
X111627Y160807D01*
Y163161D01*
X111466Y163550D01*
X111077Y163711D01*
X110427D01*
X110038Y163550D01*
X109891Y163550D01*
X109502Y163711D01*
X108852D01*
X108463Y163550D01*
X108302Y163161D01*
Y160464D01*
X108341Y160370D01*
X108015Y159870D01*
X107190D01*
X106863Y160370D01*
X106903Y160464D01*
Y163161D01*
X106810Y163384D01*
Y164450D01*
X106810Y164451D01*
X106748Y164763D01*
X106571Y165027D01*
X105775Y165824D01*
Y167215D01*
X105775Y167215D01*
X105759Y167294D01*
X105759Y168396D01*
X105759Y168896D01*
Y170561D01*
X103609D01*
X103597Y170580D01*
X103134Y170890D01*
X102587Y170998D01*
X102041Y170890D01*
X101578Y170580D01*
X101269Y170117D01*
X101160Y169571D01*
X101190Y169418D01*
X100730Y169172D01*
X99736Y170165D01*
X99472Y170342D01*
X99160Y170404D01*
X99160Y170404D01*
X87291D01*
Y171488D01*
X76649D01*
Y167688D01*
X87291D01*
Y168772D01*
X98822D01*
X99229Y168366D01*
X99037Y167904D01*
X90470D01*
X90158Y167842D01*
X89893Y167665D01*
X89893Y167665D01*
X87791Y165563D01*
X87291Y165770D01*
Y166488D01*
X76649D01*
Y162688D01*
X87291D01*
Y163772D01*
X87970D01*
X87970Y163772D01*
X88282Y163835D01*
X88547Y164011D01*
X90808Y166272D01*
X91853D01*
X92005Y165772D01*
X91993Y165765D01*
X91993Y165765D01*
X87592Y161364D01*
X87291Y161488D01*
Y161488D01*
X76649D01*
Y157688D01*
X87009D01*
X87217Y157188D01*
X86516Y156488D01*
X76649D01*
Y152688D01*
X87291D01*
Y154956D01*
X88905Y156570D01*
X89367Y156378D01*
Y155269D01*
X91348D01*
Y156813D01*
X92421Y157886D01*
X92961Y157979D01*
X93424Y157669D01*
X93970Y157561D01*
X94516Y157669D01*
X94979Y157979D01*
X94987Y157991D01*
X95487Y157839D01*
Y157571D01*
X95648Y157182D01*
X96037Y157020D01*
X98734D01*
X98828Y157059D01*
X99328Y156733D01*
Y155764D01*
X98828Y155582D01*
X98734Y155621D01*
X96037D01*
X95648Y155459D01*
X95487Y155070D01*
Y154421D01*
X95126Y153987D01*
X93513D01*
Y154047D01*
X91532D01*
Y151869D01*
X91684D01*
X91698Y151369D01*
X90732Y150404D01*
X87291D01*
Y151488D01*
X76649D01*
Y147688D01*
X87291D01*
Y148773D01*
X91070D01*
X91070Y148773D01*
X91382Y148835D01*
X91647Y149011D01*
X93100Y150464D01*
X93100Y150464D01*
X93276Y150729D01*
X93339Y151041D01*
Y151869D01*
X93513D01*
Y152355D01*
X95126D01*
X95487Y151921D01*
Y151271D01*
X95509Y151219D01*
X95627Y150809D01*
X95509Y150399D01*
X95487Y150346D01*
Y149697D01*
X95648Y149308D01*
X95648Y149160D01*
X95487Y148771D01*
Y148122D01*
X95648Y147733D01*
X96037Y147572D01*
X98391D01*
X98759Y147477D01*
X98853Y147110D01*
Y144755D01*
X99015Y144367D01*
X99404Y144205D01*
X100053D01*
X100442Y144367D01*
X100589Y144367D01*
X100978Y144205D01*
X101628D01*
X102017Y144367D01*
X102178Y144755D01*
Y147452D01*
X102139Y147547D01*
X102465Y148047D01*
X103291D01*
X103617Y147547D01*
X103578Y147452D01*
Y144850D01*
X101893Y143165D01*
X101716Y142900D01*
X101654Y142588D01*
X101654Y142588D01*
Y140456D01*
X101629Y139966D01*
X101154Y139966D01*
X99451D01*
Y139040D01*
X98166Y137755D01*
X97924Y137707D01*
X97461Y137398D01*
X97151Y136934D01*
X97043Y136388D01*
X97151Y135842D01*
X97461Y135379D01*
X97768Y135174D01*
X97616Y134674D01*
X30343D01*
Y172413D01*
X130709D01*
Y165879D01*
D02*
G37*
G36*
Y118635D02*
X116429D01*
X116070Y118635D01*
X115929Y119077D01*
Y119887D01*
X115929Y119887D01*
X115929D01*
X116091Y120332D01*
X116159Y120433D01*
X116268Y120979D01*
X116159Y121526D01*
X115849Y121989D01*
X115386Y122298D01*
X114840Y122407D01*
X114294Y122298D01*
X113831Y121989D01*
X113521Y121526D01*
X113413Y120979D01*
X113521Y120433D01*
X113584Y120339D01*
X113751Y119887D01*
X113751Y119887D01*
X113751Y119887D01*
Y118222D01*
X113751Y117906D01*
X113751Y117406D01*
Y115741D01*
X114753D01*
X114789Y115717D01*
X115102Y115654D01*
X115254Y115201D01*
Y113171D01*
X115254Y113171D01*
X114754Y112972D01*
X114443Y113101D01*
X112089D01*
X111722Y113196D01*
X111627Y113563D01*
Y115917D01*
X111466Y116306D01*
X111077Y116467D01*
X110427D01*
X110038Y116306D01*
X109891Y116306D01*
X109502Y116467D01*
X108852D01*
X108463Y116306D01*
X108302Y115917D01*
Y113220D01*
X108341Y113126D01*
X108015Y112626D01*
X107190D01*
X106863Y113126D01*
X106903Y113220D01*
Y115917D01*
X106810Y116140D01*
Y117206D01*
X106810Y117206D01*
X106748Y117518D01*
X106571Y117783D01*
X105775Y118580D01*
Y119971D01*
X105775Y119971D01*
X105759Y120050D01*
X105759Y121152D01*
X105759Y121652D01*
Y123317D01*
X103609D01*
X103597Y123336D01*
X103134Y123645D01*
X102587Y123754D01*
X102041Y123645D01*
X101578Y123336D01*
X101269Y122873D01*
X101160Y122327D01*
X101190Y122174D01*
X100730Y121928D01*
X99736Y122921D01*
X99472Y123098D01*
X99160Y123160D01*
X99160Y123160D01*
X87291D01*
Y124244D01*
X76649D01*
Y120444D01*
X87291D01*
Y121528D01*
X98822D01*
X99229Y121122D01*
X99037Y120660D01*
X90470D01*
X90158Y120598D01*
X89893Y120421D01*
X89893Y120421D01*
X87791Y118319D01*
X87291Y118526D01*
Y119244D01*
X76649D01*
Y115444D01*
X87291D01*
Y116528D01*
X87970D01*
X87970Y116528D01*
X88282Y116590D01*
X88547Y116767D01*
X90808Y119028D01*
X91853D01*
X92005Y118528D01*
X91993Y118521D01*
X91993Y118521D01*
X87592Y114120D01*
X87291Y114244D01*
Y114244D01*
X76649D01*
Y110444D01*
X87009D01*
X87217Y109944D01*
X86516Y109244D01*
X76649D01*
Y105444D01*
X87291D01*
Y107712D01*
X88905Y109326D01*
X89367Y109134D01*
Y108025D01*
X91348D01*
Y109569D01*
X92421Y110642D01*
X92961Y110735D01*
X93424Y110425D01*
X93970Y110317D01*
X94516Y110425D01*
X94979Y110735D01*
X94987Y110747D01*
X95487Y110595D01*
Y110326D01*
X95648Y109937D01*
X96037Y109776D01*
X98734D01*
X98828Y109815D01*
X99328Y109489D01*
Y108519D01*
X98828Y108337D01*
X98734Y108377D01*
X96037D01*
X95648Y108215D01*
X95487Y107826D01*
Y107177D01*
X95126Y106742D01*
X93513D01*
Y106803D01*
X91532D01*
Y104625D01*
X91684D01*
X91698Y104125D01*
X90732Y103160D01*
X87291D01*
Y104244D01*
X76649D01*
Y100444D01*
X87291D01*
Y101528D01*
X91070D01*
X91070Y101528D01*
X91382Y101591D01*
X91647Y101767D01*
X93100Y103220D01*
X93100Y103220D01*
X93276Y103485D01*
X93339Y103797D01*
Y104625D01*
X93513D01*
Y105111D01*
X95126D01*
X95487Y104677D01*
Y104027D01*
X95509Y103974D01*
X95627Y103565D01*
X95509Y103155D01*
X95487Y103102D01*
Y102452D01*
X95648Y102063D01*
X95648Y101916D01*
X95487Y101527D01*
Y100878D01*
X95648Y100488D01*
X96037Y100327D01*
X98391D01*
X98759Y100233D01*
X98853Y99866D01*
Y97511D01*
X99015Y97122D01*
X99404Y96961D01*
X100053D01*
X100442Y97122D01*
X100589Y97122D01*
X100978Y96961D01*
X101628D01*
X102017Y97122D01*
X102178Y97511D01*
Y100208D01*
X102139Y100302D01*
X102465Y100802D01*
X103291D01*
X103617Y100302D01*
X103578Y100208D01*
Y97605D01*
X101893Y95921D01*
X101716Y95656D01*
X101654Y95344D01*
X101654Y95344D01*
Y93212D01*
X101629Y92722D01*
X101154Y92722D01*
X99451D01*
Y91796D01*
X98166Y90511D01*
X97924Y90463D01*
X97461Y90153D01*
X97151Y89690D01*
X97043Y89144D01*
X97151Y88598D01*
X97461Y88135D01*
X97768Y87930D01*
X97616Y87430D01*
X30343D01*
Y125169D01*
X130709D01*
Y118635D01*
D02*
G37*
G36*
X141870Y104969D02*
X151181D01*
Y88968D01*
X136870D01*
Y98968D01*
X126378D01*
Y114969D01*
X141870D01*
Y104969D01*
D02*
G37*
G36*
X130709Y71391D02*
X116429D01*
X116070Y71391D01*
X115929Y71833D01*
Y72643D01*
X115929Y72643D01*
X115929D01*
X116091Y73088D01*
X116159Y73189D01*
X116268Y73735D01*
X116159Y74282D01*
X115849Y74745D01*
X115386Y75054D01*
X114840Y75163D01*
X114294Y75054D01*
X113831Y74745D01*
X113521Y74282D01*
X113413Y73735D01*
X113521Y73189D01*
X113584Y73095D01*
X113751Y72643D01*
X113751Y72643D01*
X113751Y72643D01*
Y70978D01*
X113751Y70662D01*
X113751Y70162D01*
Y68497D01*
X114753D01*
X114789Y68472D01*
X115102Y68410D01*
X115254Y67957D01*
Y65926D01*
X115254Y65926D01*
X114754Y65728D01*
X114443Y65857D01*
X112089D01*
X111722Y65952D01*
X111627Y66319D01*
Y68673D01*
X111466Y69062D01*
X111077Y69223D01*
X110427D01*
X110038Y69062D01*
X109891Y69062D01*
X109502Y69223D01*
X108852D01*
X108463Y69062D01*
X108302Y68673D01*
Y65976D01*
X108341Y65882D01*
X108015Y65382D01*
X107190D01*
X106863Y65882D01*
X106903Y65976D01*
Y68673D01*
X106810Y68896D01*
Y69962D01*
X106810Y69962D01*
X106748Y70274D01*
X106571Y70539D01*
X105775Y71336D01*
Y72727D01*
X105775Y72727D01*
X105759Y72806D01*
X105759Y73908D01*
X105759Y74408D01*
Y76073D01*
X103609D01*
X103597Y76092D01*
X103134Y76401D01*
X102587Y76510D01*
X102041Y76401D01*
X101578Y76092D01*
X101269Y75629D01*
X101160Y75083D01*
X101190Y74930D01*
X100730Y74684D01*
X99736Y75677D01*
X99472Y75854D01*
X99160Y75916D01*
X99160Y75916D01*
X87291D01*
Y77000D01*
X76649D01*
Y73200D01*
X87291D01*
Y74284D01*
X98822D01*
X99229Y73878D01*
X99037Y73416D01*
X90470D01*
X90158Y73354D01*
X89893Y73177D01*
X89893Y73177D01*
X87791Y71075D01*
X87291Y71282D01*
Y72000D01*
X76649D01*
Y68200D01*
X87291D01*
Y69284D01*
X87970D01*
X87970Y69284D01*
X88282Y69346D01*
X88547Y69523D01*
X90808Y71784D01*
X91853D01*
X92005Y71284D01*
X91993Y71277D01*
X91993Y71277D01*
X87592Y66875D01*
X87291Y67000D01*
Y67000D01*
X76649D01*
Y63200D01*
X87009D01*
X87217Y62700D01*
X86516Y62000D01*
X76649D01*
Y58200D01*
X87291D01*
Y60468D01*
X88905Y62081D01*
X89367Y61890D01*
Y60781D01*
X91348D01*
Y62324D01*
X92421Y63398D01*
X92961Y63491D01*
X93424Y63181D01*
X93970Y63073D01*
X94516Y63181D01*
X94979Y63491D01*
X94987Y63502D01*
X95487Y63351D01*
Y63082D01*
X95648Y62693D01*
X96037Y62532D01*
X98734D01*
X98828Y62571D01*
X99328Y62245D01*
Y61275D01*
X98828Y61093D01*
X98734Y61132D01*
X96037D01*
X95648Y60971D01*
X95487Y60582D01*
Y59933D01*
X95126Y59498D01*
X93513D01*
Y59559D01*
X91532D01*
Y57381D01*
X91684D01*
X91698Y56881D01*
X90732Y55916D01*
X87291D01*
Y57000D01*
X76649D01*
Y53200D01*
X87291D01*
Y54284D01*
X91070D01*
X91070Y54284D01*
X91382Y54346D01*
X91647Y54523D01*
X93100Y55976D01*
X93100Y55976D01*
X93276Y56241D01*
X93339Y56553D01*
Y57381D01*
X93513D01*
Y57867D01*
X95126D01*
X95487Y57433D01*
Y56783D01*
X95509Y56730D01*
X95627Y56321D01*
X95509Y55911D01*
X95487Y55858D01*
Y55208D01*
X95648Y54819D01*
X95648Y54672D01*
X95487Y54283D01*
Y53633D01*
X95648Y53245D01*
X96037Y53083D01*
X98391D01*
X98759Y52989D01*
X98853Y52621D01*
Y50267D01*
X99015Y49878D01*
X99404Y49717D01*
X100053D01*
X100442Y49878D01*
X100589Y49878D01*
X100978Y49717D01*
X101628D01*
X102017Y49878D01*
X102178Y50267D01*
Y52964D01*
X102139Y53058D01*
X102465Y53558D01*
X103291D01*
X103617Y53058D01*
X103578Y52964D01*
Y50361D01*
X101893Y48677D01*
X101716Y48412D01*
X101654Y48100D01*
X101654Y48100D01*
Y45968D01*
X101629Y45478D01*
X101154Y45478D01*
X99451D01*
Y44552D01*
X98166Y43267D01*
X97924Y43219D01*
X97461Y42909D01*
X97151Y42446D01*
X97043Y41900D01*
X97151Y41354D01*
X97461Y40891D01*
X97768Y40686D01*
X97616Y40186D01*
X30343D01*
Y77925D01*
X130709D01*
Y71391D01*
D02*
G37*
G36*
X194812Y63197D02*
X195043Y62034D01*
X195198Y60859D01*
X195276Y59676D01*
Y59083D01*
X195866D01*
X195753Y57032D01*
X195416Y55006D01*
X194859Y53029D01*
X194088Y51124D01*
X193113Y49316D01*
X191946Y47626D01*
X190600Y46074D01*
X189093Y44679D01*
X187441Y43458D01*
X185665Y42425D01*
X183787Y41594D01*
X181829Y40973D01*
X179815Y40571D01*
X177768Y40392D01*
X175715Y40439D01*
X173679Y40710D01*
X171685Y41203D01*
X169757Y41912D01*
X167918Y42829D01*
X166191Y43941D01*
X164597Y45236D01*
X163154Y46698D01*
X161880Y48309D01*
X160791Y50050D01*
X159899Y51901D01*
X159215Y53838D01*
X158699Y56130D01*
X156693D01*
Y62036D01*
X164370D01*
Y59095D01*
X164370Y59049D01*
X164379Y58609D01*
X164535Y57036D01*
X164884Y55494D01*
X165351Y54169D01*
X165962Y52903D01*
X166707Y51711D01*
X167578Y50609D01*
X168566Y49608D01*
X169657Y48722D01*
X170838Y47961D01*
X172096Y47335D01*
X173415Y46850D01*
X174780Y46512D01*
X176173Y46326D01*
X177578Y46294D01*
X178978Y46417D01*
X180356Y46692D01*
X181696Y47117D01*
X182981Y47686D01*
X184196Y48392D01*
X185326Y49228D01*
X186358Y50182D01*
X187278Y51244D01*
X188077Y52401D01*
X188744Y53638D01*
X189271Y54940D01*
X189653Y56293D01*
X189883Y57679D01*
X189961Y59083D01*
X190551D01*
X190544Y59521D01*
X190487Y60395D01*
X190372Y61263D01*
X190201Y62122D01*
X190095Y62547D01*
X194659Y63770D01*
X194812Y63197D01*
D02*
G37*
G36*
X141870Y57724D02*
X151181D01*
Y41724D01*
X136870D01*
Y51724D01*
X126378D01*
Y67724D01*
X141870D01*
Y57724D01*
D02*
G37*
%LPC*%
G36*
X109853Y170998D02*
X109307Y170890D01*
X108843Y170580D01*
X108831Y170561D01*
X106681D01*
Y168580D01*
X108831D01*
X108843Y168561D01*
X109307Y168252D01*
X109853Y168143D01*
X110399Y168252D01*
X110862Y168561D01*
X111171Y169025D01*
X111280Y169571D01*
X111171Y170117D01*
X110862Y170580D01*
X110399Y170890D01*
X109853Y170998D01*
D02*
G37*
G36*
X67291Y166488D02*
X56649D01*
Y162688D01*
X67291D01*
Y163772D01*
X68231D01*
X68361Y163579D01*
X68824Y163269D01*
X69370Y163161D01*
X69916Y163269D01*
X70379Y163579D01*
X70689Y164042D01*
X70797Y164588D01*
X70689Y165134D01*
X70379Y165597D01*
X69916Y165907D01*
X69370Y166016D01*
X68824Y165907D01*
X68361Y165597D01*
X68231Y165404D01*
X67291D01*
Y166488D01*
D02*
G37*
G36*
Y161488D02*
X56649D01*
Y157688D01*
X67291D01*
Y158773D01*
X68231D01*
X68361Y158579D01*
X68824Y158269D01*
X69370Y158161D01*
X69916Y158269D01*
X70379Y158579D01*
X70689Y159042D01*
X70797Y159588D01*
X70689Y160134D01*
X70379Y160598D01*
X69916Y160907D01*
X69370Y161016D01*
X68824Y160907D01*
X68361Y160598D01*
X68231Y160404D01*
X67291D01*
Y161488D01*
D02*
G37*
G36*
Y156488D02*
X56649D01*
Y152688D01*
X67291D01*
Y156488D01*
D02*
G37*
G36*
Y151488D02*
X56649D01*
Y147688D01*
X67291D01*
Y148773D01*
X68231D01*
X68361Y148579D01*
X68824Y148269D01*
X69370Y148161D01*
X69916Y148269D01*
X70379Y148579D01*
X70689Y149042D01*
X70797Y149588D01*
X70689Y150134D01*
X70379Y150598D01*
X69916Y150907D01*
X69370Y151016D01*
X68824Y150907D01*
X68361Y150598D01*
X68231Y150404D01*
X67291D01*
Y151488D01*
D02*
G37*
G36*
X109853Y123754D02*
X109307Y123645D01*
X108843Y123336D01*
X108831Y123317D01*
X106681D01*
Y121336D01*
X108831D01*
X108843Y121317D01*
X109307Y121008D01*
X109853Y120899D01*
X110399Y121008D01*
X110862Y121317D01*
X111171Y121781D01*
X111280Y122327D01*
X111171Y122873D01*
X110862Y123336D01*
X110399Y123645D01*
X109853Y123754D01*
D02*
G37*
G36*
X67291Y119244D02*
X56649D01*
Y115444D01*
X67291D01*
Y116528D01*
X68231D01*
X68361Y116335D01*
X68824Y116025D01*
X69370Y115917D01*
X69916Y116025D01*
X70379Y116335D01*
X70689Y116798D01*
X70797Y117344D01*
X70689Y117890D01*
X70379Y118353D01*
X69916Y118663D01*
X69370Y118772D01*
X68824Y118663D01*
X68361Y118353D01*
X68231Y118160D01*
X67291D01*
Y119244D01*
D02*
G37*
G36*
Y114244D02*
X56649D01*
Y110444D01*
X67291D01*
Y111528D01*
X68231D01*
X68361Y111335D01*
X68824Y111025D01*
X69370Y110917D01*
X69916Y111025D01*
X70379Y111335D01*
X70689Y111798D01*
X70797Y112344D01*
X70689Y112890D01*
X70379Y113353D01*
X69916Y113663D01*
X69370Y113771D01*
X68824Y113663D01*
X68361Y113353D01*
X68231Y113160D01*
X67291D01*
Y114244D01*
D02*
G37*
G36*
Y109244D02*
X56649D01*
Y105444D01*
X67291D01*
Y109244D01*
D02*
G37*
G36*
Y104244D02*
X56649D01*
Y100444D01*
X67291D01*
Y101528D01*
X68231D01*
X68361Y101335D01*
X68824Y101025D01*
X69370Y100917D01*
X69916Y101025D01*
X70379Y101335D01*
X70689Y101798D01*
X70797Y102344D01*
X70689Y102890D01*
X70379Y103353D01*
X69916Y103663D01*
X69370Y103771D01*
X68824Y103663D01*
X68361Y103353D01*
X68231Y103160D01*
X67291D01*
Y104244D01*
D02*
G37*
G36*
X109853Y76510D02*
X109307Y76401D01*
X108843Y76092D01*
X108831Y76073D01*
X106681D01*
Y74092D01*
X108831D01*
X108843Y74073D01*
X109307Y73764D01*
X109853Y73655D01*
X110399Y73764D01*
X110862Y74073D01*
X111171Y74536D01*
X111280Y75083D01*
X111171Y75629D01*
X110862Y76092D01*
X110399Y76401D01*
X109853Y76510D01*
D02*
G37*
G36*
X67291Y72000D02*
X56649D01*
Y68200D01*
X67291D01*
Y69284D01*
X68231D01*
X68361Y69091D01*
X68824Y68781D01*
X69370Y68673D01*
X69916Y68781D01*
X70379Y69091D01*
X70689Y69554D01*
X70797Y70100D01*
X70689Y70646D01*
X70379Y71109D01*
X69916Y71419D01*
X69370Y71527D01*
X68824Y71419D01*
X68361Y71109D01*
X68231Y70916D01*
X67291D01*
Y72000D01*
D02*
G37*
G36*
Y67000D02*
X56649D01*
Y63200D01*
X67291D01*
Y64284D01*
X68231D01*
X68361Y64091D01*
X68824Y63781D01*
X69370Y63673D01*
X69916Y63781D01*
X70379Y64091D01*
X70689Y64554D01*
X70797Y65100D01*
X70689Y65646D01*
X70379Y66109D01*
X69916Y66419D01*
X69370Y66527D01*
X68824Y66419D01*
X68361Y66109D01*
X68231Y65916D01*
X67291D01*
Y67000D01*
D02*
G37*
G36*
Y62000D02*
X56649D01*
Y58200D01*
X67291D01*
Y62000D01*
D02*
G37*
G36*
Y57000D02*
X56649D01*
Y53200D01*
X67291D01*
Y54284D01*
X68231D01*
X68361Y54091D01*
X68824Y53781D01*
X69370Y53673D01*
X69916Y53781D01*
X70379Y54091D01*
X70689Y54554D01*
X70797Y55100D01*
X70689Y55646D01*
X70379Y56109D01*
X69916Y56419D01*
X69370Y56527D01*
X68824Y56419D01*
X68361Y56109D01*
X68231Y55916D01*
X67291D01*
Y57000D01*
D02*
G37*
%LPD*%
D10*
X195276Y200815D02*
G03*
X194659Y205502I-18110J-0D01*
G01*
X190551Y200815D02*
G03*
X190095Y204280I-13386J0D01*
G01*
X195276Y200815D02*
X195866D01*
X190095Y204280D02*
X194659Y205502D01*
X161880Y190041D02*
X163154Y188430D01*
X160791Y191783D02*
X161880Y190041D01*
X166191Y185673D02*
X167918Y184561D01*
X163154Y188430D02*
X164597Y186968D01*
X166191Y185673D01*
X159899Y193633D02*
X160791Y191783D01*
X159215Y195570D02*
X159899Y193633D01*
X167578Y192341D02*
X168566Y191341D01*
X165962Y194635D02*
X166707Y193444D01*
X167578Y192341D01*
X167918Y184561D02*
X169757Y183644D01*
X169657Y190455D02*
X170838Y189694D01*
X171685Y182936D02*
X173679Y182442D01*
X169757Y183644D02*
X171685Y182936D01*
X170838Y189694D02*
X172096Y189067D01*
X168566Y191341D02*
X169657Y190455D01*
X156693Y197862D02*
X158699D01*
X159215Y195570D01*
X164370Y201098D02*
Y202396D01*
Y200881D02*
Y201098D01*
X164379Y200342D02*
X164535Y198768D01*
X164370Y200781D02*
X164379Y200342D01*
X165351Y195901D02*
X165962Y194635D01*
X164535Y198768D02*
X164884Y197227D01*
X165351Y195901D01*
X156693Y203768D02*
X164370D01*
Y200827D02*
X164370Y200781D01*
X164370Y202396D02*
Y203768D01*
Y200827D02*
Y200881D01*
X175715Y182171D02*
X177768Y182124D01*
X173679Y182442D02*
X175715Y182171D01*
X177768Y182124D02*
X179815Y182303D01*
X176173Y188058D02*
X177578Y188026D01*
X178978Y188149D01*
X173415Y188582D02*
X174780Y188244D01*
X172096Y189067D02*
X173415Y188582D01*
X174780Y188244D02*
X176173Y188058D01*
X178978Y188149D02*
X180356Y188424D01*
X181696Y188849D01*
X179815Y182303D02*
X181829Y182705D01*
X183787Y183326D01*
X185665Y184158D01*
X187441Y185190D01*
X189093Y186411D01*
X181696Y188849D02*
X182981Y189418D01*
X184196Y190124D01*
X189093Y186411D02*
X190600Y187807D01*
X191946Y189358D01*
X193113Y191049D01*
X184196Y190124D02*
X185326Y190960D01*
X186358Y191915D01*
X187278Y192976D01*
X188077Y194133D01*
X188744Y195370D01*
X189271Y196673D01*
X189653Y198025D01*
X189883Y199412D01*
X189961Y200815D01*
X190551D01*
X193113Y191049D02*
X194088Y192857D01*
X194859Y194761D01*
X195416Y196738D01*
X195753Y198764D01*
X195866Y200815D01*
X156693Y197862D02*
Y200815D01*
Y203768D01*
X190551Y59083D02*
G03*
X190095Y62547I-13386J0D01*
G01*
X195276Y59083D02*
G03*
X194659Y63770I-18110J-0D01*
G01*
X161880Y48309D02*
X163154Y46698D01*
X160791Y50050D02*
X161880Y48309D01*
X166191Y43941D02*
X167918Y42829D01*
X163154Y46698D02*
X164597Y45236D01*
X166191Y43941D01*
X159899Y51901D02*
X160791Y50050D01*
X159215Y53838D02*
X159899Y51901D01*
X167578Y50609D02*
X168566Y49608D01*
X165962Y52903D02*
X166707Y51711D01*
X167578Y50609D01*
X167918Y42829D02*
X169757Y41912D01*
X169657Y48722D02*
X170838Y47961D01*
X171685Y41203D02*
X173679Y40710D01*
X169757Y41912D02*
X171685Y41203D01*
X170838Y47961D02*
X172096Y47335D01*
X168566Y49608D02*
X169657Y48722D01*
X156693Y56130D02*
X158699D01*
X159215Y53838D01*
X164370Y59365D02*
Y60663D01*
Y59149D02*
Y59365D01*
X164379Y58609D02*
X164535Y57036D01*
X164370Y59049D02*
X164379Y58609D01*
X165351Y54169D02*
X165962Y52903D01*
X164535Y57036D02*
X164884Y55494D01*
X165351Y54169D01*
X156693Y62036D02*
X164370D01*
Y59095D02*
X164370Y59049D01*
X164370Y60663D02*
Y62036D01*
Y59095D02*
Y59149D01*
X175715Y40439D02*
X177768Y40392D01*
X173679Y40710D02*
X175715Y40439D01*
X177768Y40392D02*
X179815Y40571D01*
X176173Y46326D02*
X177578Y46294D01*
X178978Y46417D01*
X173415Y46850D02*
X174780Y46512D01*
X172096Y47335D02*
X173415Y46850D01*
X174780Y46512D02*
X176173Y46326D01*
X178978Y46417D02*
X180356Y46692D01*
X181696Y47117D01*
X179815Y40571D02*
X181829Y40973D01*
X183787Y41594D01*
X185665Y42425D01*
X187441Y43458D01*
X189093Y44679D01*
X181696Y47117D02*
X182981Y47686D01*
X184196Y48392D01*
X189093Y44679D02*
X190600Y46074D01*
X191946Y47626D01*
X193113Y49316D01*
X184196Y48392D02*
X185326Y49228D01*
X186358Y50182D01*
X187278Y51244D01*
X188077Y52401D01*
X188744Y53638D01*
X189271Y54940D01*
X189653Y56293D01*
X189883Y57679D01*
X189961Y59083D01*
X190551D01*
X193113Y49316D02*
X194088Y51124D01*
X194859Y53029D01*
X195416Y55006D01*
X195753Y57032D01*
X190095Y62547D02*
X194659Y63770D01*
X195753Y57032D02*
X195866Y59083D01*
X195276D02*
X195866D01*
X156693Y56130D02*
Y59083D01*
Y62036D01*
D11*
X144488Y194980D02*
D03*
Y206594D02*
D03*
X141339Y149114D02*
D03*
Y137500D02*
D03*
X170079Y112106D02*
D03*
Y100492D02*
D03*
D12*
X150492Y200787D02*
D03*
X135335Y143307D02*
D03*
X164075Y106299D02*
D03*
D13*
X159449Y200815D02*
D03*
Y59083D02*
D03*
D14*
X150492Y200787D02*
X150520Y200815D01*
X156693D01*
D15*
X159449D01*
X121260Y138976D02*
X130905D01*
X135236Y143307D01*
X135335D01*
X118513Y147038D02*
X121063Y144488D01*
X121260D01*
X115526Y147038D02*
X118513D01*
X114118Y148447D02*
X115526Y147038D01*
X113094Y148447D02*
X114118D01*
X155907Y106327D02*
X164047D01*
X164075Y106299D01*
X127384Y91732D02*
X127620Y91969D01*
X121260Y91732D02*
X127384D01*
X118513Y99794D02*
X121063Y97244D01*
X115526Y99794D02*
X118513D01*
X114118Y101202D02*
X115526Y99794D01*
X113094Y101202D02*
X114118D01*
X121063Y97244D02*
X121260D01*
X150020Y112214D02*
X155907Y106327D01*
X127384Y44488D02*
X127620Y44724D01*
X121260Y44488D02*
X127384D01*
X118513Y52550D02*
X121063Y50000D01*
X115526Y52550D02*
X118513D01*
X114118Y53958D02*
X115526Y52550D01*
X113094Y53958D02*
X114118D01*
X121063Y50000D02*
X121260D01*
X155907Y59083D02*
X156693D01*
X150020Y64970D02*
X155907Y59083D01*
X156693D02*
X159449D01*
D16*
X121260Y144488D02*
D03*
Y138976D02*
D03*
Y91732D02*
D03*
Y97244D02*
D03*
Y44488D02*
D03*
Y50000D02*
D03*
D17*
X115748Y142874D02*
D03*
Y137441D02*
D03*
Y95630D02*
D03*
Y90197D02*
D03*
Y48386D02*
D03*
Y42953D02*
D03*
D18*
X113094Y159470D02*
D03*
Y156321D02*
D03*
Y157895D02*
D03*
Y150021D02*
D03*
Y154746D02*
D03*
Y151596D02*
D03*
Y153171D02*
D03*
Y148447D02*
D03*
X97386Y159470D02*
D03*
Y157895D02*
D03*
Y156321D02*
D03*
Y154746D02*
D03*
Y153171D02*
D03*
Y151596D02*
D03*
Y150021D02*
D03*
Y148447D02*
D03*
X113094Y112226D02*
D03*
Y109076D02*
D03*
Y110651D02*
D03*
Y102777D02*
D03*
Y107502D02*
D03*
Y104352D02*
D03*
Y105927D02*
D03*
Y101202D02*
D03*
X97386Y112226D02*
D03*
Y110651D02*
D03*
Y109076D02*
D03*
Y107502D02*
D03*
Y105927D02*
D03*
Y104352D02*
D03*
Y102777D02*
D03*
Y101202D02*
D03*
X113094Y64982D02*
D03*
Y61832D02*
D03*
Y63407D02*
D03*
Y55533D02*
D03*
Y60258D02*
D03*
Y57108D02*
D03*
Y58683D02*
D03*
Y53958D02*
D03*
X97386Y64982D02*
D03*
Y63407D02*
D03*
Y61832D02*
D03*
Y60258D02*
D03*
Y58683D02*
D03*
Y57108D02*
D03*
Y55533D02*
D03*
Y53958D02*
D03*
D19*
X107602Y161813D02*
D03*
X109177D02*
D03*
X110752D02*
D03*
X109177Y146104D02*
D03*
X110752D02*
D03*
X106028Y161813D02*
D03*
X102878D02*
D03*
X104453D02*
D03*
X99728D02*
D03*
X101303D02*
D03*
X107602Y146104D02*
D03*
X104453D02*
D03*
X106028D02*
D03*
X101303D02*
D03*
X102878D02*
D03*
X99728D02*
D03*
X107602Y114568D02*
D03*
X109177D02*
D03*
X110752D02*
D03*
X109177Y98860D02*
D03*
X110752D02*
D03*
X106028Y114568D02*
D03*
X102878D02*
D03*
X104453D02*
D03*
X99728D02*
D03*
X101303D02*
D03*
X107602Y98860D02*
D03*
X104453D02*
D03*
X106028D02*
D03*
X101303D02*
D03*
X102878D02*
D03*
X99728D02*
D03*
X107602Y67324D02*
D03*
X109177D02*
D03*
X110752D02*
D03*
X109177Y51616D02*
D03*
X110752D02*
D03*
X106028Y67324D02*
D03*
X102878D02*
D03*
X104453D02*
D03*
X99728D02*
D03*
X101303D02*
D03*
X107602Y51616D02*
D03*
X104453D02*
D03*
X106028D02*
D03*
X101303D02*
D03*
X102878D02*
D03*
X99728D02*
D03*
D20*
X105240Y153958D02*
D03*
Y106714D02*
D03*
Y59470D02*
D03*
D21*
X107770Y169571D02*
D03*
Y167405D02*
D03*
X117340Y151976D02*
D03*
Y154141D02*
D03*
X112205Y139862D02*
D03*
Y142028D02*
D03*
X100540Y141141D02*
D03*
Y138976D02*
D03*
X104670Y169571D02*
D03*
Y167405D02*
D03*
X114840Y166141D02*
D03*
Y163976D02*
D03*
X120340Y154141D02*
D03*
Y151976D02*
D03*
X107770Y122327D02*
D03*
Y120161D02*
D03*
X117340Y104732D02*
D03*
Y106897D02*
D03*
X112205Y92618D02*
D03*
Y94784D02*
D03*
X100540Y93897D02*
D03*
Y91732D02*
D03*
X104670Y122327D02*
D03*
Y120161D02*
D03*
X114840Y118897D02*
D03*
Y116732D02*
D03*
X120340Y106897D02*
D03*
Y104732D02*
D03*
X107770Y75083D02*
D03*
Y72917D02*
D03*
X117340Y57487D02*
D03*
Y59653D02*
D03*
X112205Y45374D02*
D03*
Y47539D02*
D03*
X100540Y46653D02*
D03*
Y44487D02*
D03*
X104670Y75083D02*
D03*
Y72917D02*
D03*
X114840Y71653D02*
D03*
Y69487D02*
D03*
X120340Y59653D02*
D03*
Y57487D02*
D03*
D22*
X92523Y152958D02*
D03*
X90358D02*
D03*
X120423Y148858D02*
D03*
X118257D02*
D03*
X92523Y156358D02*
D03*
X90358D02*
D03*
X92523Y105714D02*
D03*
X90358D02*
D03*
X120423Y101614D02*
D03*
X118257D02*
D03*
X92523Y109114D02*
D03*
X90358D02*
D03*
X92523Y58470D02*
D03*
X90358D02*
D03*
X120423Y54370D02*
D03*
X118257D02*
D03*
X92523Y61870D02*
D03*
X90358D02*
D03*
D23*
X109235Y138113D02*
D03*
X104905D02*
D03*
Y141263D02*
D03*
X109235D02*
D03*
Y90869D02*
D03*
X104905D02*
D03*
Y94019D02*
D03*
X109235D02*
D03*
Y43625D02*
D03*
X104905D02*
D03*
Y46775D02*
D03*
X109235D02*
D03*
D24*
X119040Y163714D02*
D03*
Y158202D02*
D03*
Y116470D02*
D03*
Y110958D02*
D03*
Y69226D02*
D03*
Y63714D02*
D03*
D25*
X81970Y149588D02*
D03*
X61970D02*
D03*
X81970Y154588D02*
D03*
X61970D02*
D03*
X81970Y159588D02*
D03*
X61970D02*
D03*
X81970Y164588D02*
D03*
X61970D02*
D03*
X81970Y169588D02*
D03*
X61970D02*
D03*
X81970Y102344D02*
D03*
X61970D02*
D03*
X81970Y107344D02*
D03*
X61970D02*
D03*
X81970Y112344D02*
D03*
X61970D02*
D03*
X81970Y117344D02*
D03*
X61970D02*
D03*
X81970Y122344D02*
D03*
X61970D02*
D03*
X81970Y55100D02*
D03*
X61970D02*
D03*
X81970Y60100D02*
D03*
X61970D02*
D03*
X81970Y65100D02*
D03*
X61970D02*
D03*
X81970Y70100D02*
D03*
X61970D02*
D03*
X81970Y75100D02*
D03*
X61970D02*
D03*
D26*
X118477Y135692D02*
Y140657D01*
X116260Y142874D02*
X118477Y140657D01*
X115748Y142874D02*
X116142D01*
X116260D01*
X115295Y142028D02*
X116142Y142874D01*
X102470Y137251D02*
X104498Y135224D01*
X118008D01*
X118477Y135692D01*
X112205Y139862D02*
X112395Y139672D01*
X102470Y137251D02*
Y142588D01*
X115469Y138113D02*
X116142Y137441D01*
X111478Y138113D02*
X115469D01*
X112106Y139862D02*
X112205D01*
X111916Y139672D02*
X112106Y139862D01*
X111916Y138876D02*
Y139672D01*
X111478Y138438D02*
X111916Y138876D01*
X111478Y138113D02*
Y138438D01*
X115630Y137441D02*
X116142D01*
X112106Y142028D02*
X112205D01*
X110752Y143382D02*
Y146104D01*
Y143382D02*
X112106Y142028D01*
X112205D02*
X115295D01*
X107770Y169571D02*
X109853D01*
X81970Y169588D02*
X99160D01*
X99963Y167088D02*
X102878Y164173D01*
X107602Y167238D02*
X107770Y167405D01*
X107602Y161813D02*
Y167238D01*
X104959Y165486D02*
X105994Y164451D01*
X104959Y165486D02*
Y167215D01*
X104769Y167405D02*
X104959Y167215D01*
X104670Y167405D02*
X104769D01*
X102587Y169571D02*
X104670D01*
X99160Y169588D02*
X104453Y164295D01*
X91070Y149588D02*
X92523Y151041D01*
X90358Y153476D02*
X92523Y155641D01*
X92735Y153171D02*
X97386D01*
X92523Y156358D02*
X97348D01*
X92523Y155641D02*
Y156358D01*
X90358Y152958D02*
Y153476D01*
X92523Y151041D02*
Y152958D01*
X92735Y153171D01*
X105994Y161846D02*
Y164451D01*
X97386Y154746D02*
X104453D01*
X97348Y156358D02*
X97386Y156321D01*
X94452Y159470D02*
X97386D01*
X93970Y158988D02*
X94452Y159470D01*
X104453Y161813D02*
Y164295D01*
X102878Y161813D02*
Y164173D01*
X101303Y161813D02*
Y164051D01*
X100166Y165188D02*
X101303Y164051D01*
X81970Y154588D02*
X85770D01*
X90358Y156358D02*
Y156976D01*
X81970Y159588D02*
X86970D01*
X90358Y156976D02*
X92370Y158988D01*
X90470Y167088D02*
X99963D01*
X85770Y154588D02*
X92994Y161813D01*
X61970Y164588D02*
X69370D01*
X92570Y165188D02*
X100166D01*
X92994Y161813D02*
X99728D01*
X86970Y159588D02*
X92570Y165188D01*
X87970Y164588D02*
X90470Y167088D01*
X81970Y164588D02*
X87970D01*
X92370Y158988D02*
X93970D01*
X102470Y142588D02*
X104420Y144538D01*
X102536Y145762D02*
X102878Y146104D01*
X102536Y144379D02*
Y145762D01*
X102004Y143847D02*
X102536Y144379D01*
X100621Y143847D02*
X102004D01*
X100829Y141332D02*
Y142672D01*
X100639Y141141D02*
X100829Y141332D01*
X98470Y136388D02*
Y136906D01*
X100540Y138976D01*
X100138Y143364D02*
X100829Y142672D01*
X100138Y143364D02*
X100621Y143847D01*
X100540Y141141D02*
X100639D01*
X81970Y149588D02*
X91070D01*
X61970Y159588D02*
X69370D01*
X61970Y149588D02*
X69370D01*
X114840Y163976D02*
X115102Y163714D01*
X114702Y156321D02*
X116070Y157688D01*
X118851Y152869D02*
Y152898D01*
X116070Y163714D02*
X119040D01*
X116070Y157688D02*
Y163714D01*
X115102D02*
X116070D01*
X114840Y166141D02*
Y168224D01*
X116735Y154746D02*
X119040Y157050D01*
X117957Y151976D02*
X118851Y152869D01*
X119040Y157050D02*
Y158202D01*
X113094Y154746D02*
X116735D01*
X113094Y156321D02*
X114702D01*
X120123Y154141D02*
X120340D01*
X119348Y153366D02*
X120123Y154141D01*
X119320Y153366D02*
X119348D01*
X118851Y152898D02*
X119320Y153366D01*
X117340Y151976D02*
X117957D01*
X115570Y151988D02*
X115770D01*
X115178Y151596D02*
X115570Y151988D01*
X113094Y150021D02*
X117095D01*
X113094Y151596D02*
X115178D01*
X117095Y150021D02*
X118257Y148858D01*
X109235Y138113D02*
X111478D01*
X109205Y141733D02*
Y146076D01*
X109177Y146104D02*
X109205Y146076D01*
X104875Y138584D02*
X105965D01*
X107070Y139688D01*
X104905Y142723D02*
X106028Y143846D01*
Y157895D02*
X113094D01*
X104453Y154746D02*
X105240Y153958D01*
X105994Y161846D02*
X106028Y161813D01*
X107070Y139688D02*
Y143191D01*
X106028Y143846D02*
Y146104D01*
X107569Y146071D02*
X107602Y146104D01*
X107569Y143690D02*
Y146071D01*
X107070Y143191D02*
X107569Y143690D01*
X104420Y144538D02*
Y146071D01*
X104453Y146104D01*
X116142Y95630D02*
X116260D01*
X115748D02*
X116142D01*
X115295Y94784D02*
X116142Y95630D01*
X102470Y90007D02*
X104498Y87980D01*
X118008D01*
X118477Y88448D01*
Y93413D01*
X116260Y95630D02*
X118477Y93413D01*
X112205Y92618D02*
X112395Y92427D01*
X102470Y90007D02*
Y95344D01*
X115469Y90869D02*
X116142Y90197D01*
X111478Y90869D02*
X115469D01*
X112106Y92618D02*
X112205D01*
X111916Y92427D02*
X112106Y92618D01*
X111916Y91632D02*
Y92427D01*
X111478Y91194D02*
X111916Y91632D01*
X111478Y90869D02*
Y91194D01*
X115630Y90197D02*
X116142D01*
X112106Y94784D02*
X112205D01*
X110752Y96138D02*
Y98860D01*
Y96138D02*
X112106Y94784D01*
X112205D02*
X115295D01*
X107770Y122327D02*
X109853D01*
X81970Y122344D02*
X99160D01*
X99963Y119844D02*
X102878Y116929D01*
X107602Y119994D02*
X107770Y120161D01*
X107602Y114568D02*
Y119994D01*
X104959Y118242D02*
X105994Y117206D01*
X104959Y118242D02*
Y119971D01*
X104769Y120161D02*
X104959Y119971D01*
X104670Y120161D02*
X104769D01*
X102587Y122327D02*
X104670D01*
X99160Y122344D02*
X104453Y117051D01*
X91070Y102344D02*
X92523Y103797D01*
X90358Y106231D02*
X92523Y108397D01*
X92735Y105927D02*
X97386D01*
X92523Y109114D02*
X97348D01*
X92523Y108397D02*
Y109114D01*
X90358Y105714D02*
Y106231D01*
X92523Y103797D02*
Y105714D01*
X92735Y105927D01*
X105994Y114602D02*
Y117206D01*
X97386Y107502D02*
X104453D01*
X97348Y109114D02*
X97386Y109076D01*
X94452Y112226D02*
X97386D01*
X93970Y111744D02*
X94452Y112226D01*
X104453Y114568D02*
Y117051D01*
X102878Y114568D02*
Y116929D01*
X101303Y114568D02*
Y116807D01*
X100166Y117944D02*
X101303Y116807D01*
X81970Y107344D02*
X85770D01*
X90358Y109114D02*
Y109731D01*
X81970Y112344D02*
X86970D01*
X90358Y109731D02*
X92370Y111744D01*
X90470Y119844D02*
X99963D01*
X85770Y107344D02*
X92994Y114568D01*
X61970Y117344D02*
X69370D01*
X92570Y117944D02*
X100166D01*
X92994Y114568D02*
X99728D01*
X86970Y112344D02*
X92570Y117944D01*
X87970Y117344D02*
X90470Y119844D01*
X81970Y117344D02*
X87970D01*
X92370Y111744D02*
X93970D01*
X102470Y95344D02*
X104420Y97294D01*
X102536Y98518D02*
X102878Y98860D01*
X102536Y97135D02*
Y98518D01*
X102004Y96603D02*
X102536Y97135D01*
X100621Y96603D02*
X102004D01*
X100829Y94087D02*
Y95428D01*
X100639Y93897D02*
X100829Y94087D01*
X98470Y89144D02*
Y89661D01*
X100540Y91732D01*
X100138Y96120D02*
X100829Y95428D01*
X100138Y96120D02*
X100621Y96603D01*
X100540Y93897D02*
X100639D01*
X81970Y102344D02*
X91070D01*
X61970Y112344D02*
X69370D01*
X61970Y102344D02*
X69370D01*
X114840Y116732D02*
X115102Y116470D01*
X114702Y109076D02*
X116070Y110444D01*
X118851Y105625D02*
Y105653D01*
X116070Y116470D02*
X119040D01*
X116070Y110444D02*
Y116470D01*
X115102D02*
X116070D01*
X114840Y118897D02*
Y120979D01*
X116735Y107502D02*
X119040Y109806D01*
X117957Y104732D02*
X118851Y105625D01*
X119040Y109806D02*
Y110958D01*
X113094Y107502D02*
X116735D01*
X113094Y109076D02*
X114702D01*
X120123Y106897D02*
X120340D01*
X119348Y106122D02*
X120123Y106897D01*
X119320Y106122D02*
X119348D01*
X118851Y105653D02*
X119320Y106122D01*
X117340Y104732D02*
X117957D01*
X115570Y104744D02*
X115770D01*
X115178Y104352D02*
X115570Y104744D01*
X113094Y102777D02*
X117095D01*
X113094Y104352D02*
X115178D01*
X117095Y102777D02*
X118257Y101614D01*
X109235Y90869D02*
X111478D01*
X109205Y94489D02*
Y98831D01*
X109177Y98860D02*
X109205Y98831D01*
X104875Y91339D02*
X105965D01*
X107070Y92444D01*
X104905Y95479D02*
X106028Y96602D01*
Y110651D02*
X113094D01*
X104453Y107502D02*
X105240Y106714D01*
X105994Y114602D02*
X106028Y114568D01*
X107070Y92444D02*
Y95947D01*
X106028Y96602D02*
Y98860D01*
X107569Y98827D02*
X107602Y98860D01*
X107569Y96446D02*
Y98827D01*
X107070Y95947D02*
X107569Y96446D01*
X104420Y97294D02*
Y98827D01*
X104453Y98860D01*
X116142Y48386D02*
X116260D01*
X115748D02*
X116142D01*
X115295Y47539D02*
X116142Y48386D01*
X102470Y42763D02*
X104498Y40736D01*
X118008D01*
X118477Y41204D01*
Y46169D01*
X116260Y48386D02*
X118477Y46169D01*
X112205Y45374D02*
X112395Y45184D01*
X102470Y42763D02*
Y48100D01*
X115469Y43625D02*
X116142Y42953D01*
X111478Y43625D02*
X115469D01*
X112106Y45374D02*
X112205D01*
X111916Y45184D02*
X112106Y45374D01*
X111916Y44388D02*
Y45184D01*
X111478Y43950D02*
X111916Y44388D01*
X111478Y43625D02*
Y43950D01*
X115630Y42953D02*
X116142D01*
X112106Y47539D02*
X112205D01*
X110752Y48894D02*
Y51616D01*
Y48894D02*
X112106Y47539D01*
X112205D02*
X115295D01*
X107770Y75083D02*
X109853D01*
X81970Y75100D02*
X99160D01*
X99963Y72600D02*
X102878Y69685D01*
X107602Y72750D02*
X107770Y72917D01*
X107602Y67324D02*
Y72750D01*
X104959Y70998D02*
X105994Y69962D01*
X104959Y70998D02*
Y72727D01*
X104769Y72917D02*
X104959Y72727D01*
X104670Y72917D02*
X104769D01*
X102587Y75083D02*
X104670D01*
X99160Y75100D02*
X104453Y69807D01*
X91070Y55100D02*
X92523Y56553D01*
X90358Y58987D02*
X92523Y61153D01*
X92735Y58683D02*
X97386D01*
X92523Y61870D02*
X97348D01*
X92523Y61153D02*
Y61870D01*
X90358Y58470D02*
Y58987D01*
X92523Y56553D02*
Y58470D01*
X92735Y58683D01*
X105994Y67357D02*
Y69962D01*
X97386Y60258D02*
X104453D01*
X97348Y61870D02*
X97386Y61832D01*
X94452Y64982D02*
X97386D01*
X93970Y64500D02*
X94452Y64982D01*
X104453Y67324D02*
Y69807D01*
X102878Y67324D02*
Y69685D01*
X101303Y67324D02*
Y69563D01*
X100166Y70700D02*
X101303Y69563D01*
X81970Y60100D02*
X85770D01*
X90358Y61870D02*
Y62487D01*
X81970Y65100D02*
X86970D01*
X90358Y62487D02*
X92370Y64500D01*
X90470Y72600D02*
X99963D01*
X85770Y60100D02*
X92994Y67324D01*
X61970Y70100D02*
X69370D01*
X92570Y70700D02*
X100166D01*
X92994Y67324D02*
X99728D01*
X86970Y65100D02*
X92570Y70700D01*
X87970Y70100D02*
X90470Y72600D01*
X81970Y70100D02*
X87970D01*
X92370Y64500D02*
X93970D01*
X102470Y48100D02*
X104420Y50050D01*
X102536Y51274D02*
X102878Y51616D01*
X102536Y49891D02*
Y51274D01*
X102004Y49359D02*
X102536Y49891D01*
X100621Y49359D02*
X102004D01*
X100829Y46843D02*
Y48184D01*
X100639Y46653D02*
X100829Y46843D01*
X98470Y41900D02*
Y42417D01*
X100540Y44487D01*
X100138Y48875D02*
X100829Y48184D01*
X100138Y48875D02*
X100621Y49359D01*
X100540Y46653D02*
X100639D01*
X81970Y55100D02*
X91070D01*
X61970Y65100D02*
X69370D01*
X61970Y55100D02*
X69370D01*
X114840Y69487D02*
X115102Y69226D01*
X114702Y61832D02*
X116070Y63200D01*
X118851Y58381D02*
Y58409D01*
X116070Y69226D02*
X119040D01*
X116070Y63200D02*
Y69226D01*
X115102D02*
X116070D01*
X114840Y71653D02*
Y73735D01*
X116735Y60258D02*
X119040Y62562D01*
X117957Y57487D02*
X118851Y58381D01*
X119040Y62562D02*
Y63714D01*
X113094Y60258D02*
X116735D01*
X113094Y61832D02*
X114702D01*
X120123Y59653D02*
X120340D01*
X119348Y58878D02*
X120123Y59653D01*
X119320Y58878D02*
X119348D01*
X118851Y58409D02*
X119320Y58878D01*
X117340Y57487D02*
X117957D01*
X115570Y57500D02*
X115770D01*
X115178Y57108D02*
X115570Y57500D01*
X113094Y55533D02*
X117095D01*
X113094Y57108D02*
X115178D01*
X117095Y55533D02*
X118257Y54370D01*
X109235Y43625D02*
X111478D01*
X109205Y47245D02*
Y51587D01*
X109177Y51616D02*
X109205Y51587D01*
X104875Y44095D02*
X105965D01*
X107070Y45200D01*
X104905Y48235D02*
X106028Y49358D01*
Y63407D02*
X113094D01*
X104453Y60258D02*
X105240Y59470D01*
X105994Y67357D02*
X106028Y67324D01*
X107070Y45200D02*
Y48703D01*
X106028Y49358D02*
Y51616D01*
X107569Y51583D02*
X107602Y51616D01*
X107569Y49202D02*
Y51583D01*
X107070Y48703D02*
X107569Y49202D01*
X104420Y50050D02*
Y51583D01*
X104453Y51616D01*
D27*
X120340Y148941D02*
X120423Y148858D01*
X120340Y148941D02*
Y151976D01*
Y101697D02*
X120423Y101614D01*
X120340Y101697D02*
Y104732D01*
Y54453D02*
X120423Y54370D01*
X120340Y54453D02*
Y57487D01*
D28*
X151120Y91969D02*
D03*
Y101969D02*
D03*
Y111969D02*
D03*
X127620D02*
D03*
X127618Y101969D02*
D03*
X127620Y91969D02*
D03*
X151120Y44724D02*
D03*
Y54724D02*
D03*
Y64724D02*
D03*
X127620D02*
D03*
X127618Y54724D02*
D03*
X127620Y44724D02*
D03*
D29*
X149606Y194882D02*
D03*
Y206693D02*
D03*
X109740Y153958D02*
D03*
X105240Y158458D02*
D03*
Y153958D02*
D03*
Y149458D02*
D03*
X100740Y153958D02*
D03*
X136221Y149213D02*
D03*
Y137402D02*
D03*
X125591Y165349D02*
D03*
X111478Y138113D02*
D03*
X35433Y141732D02*
D03*
Y165354D02*
D03*
X109853Y169571D02*
D03*
X93970Y158988D02*
D03*
X114840Y168224D02*
D03*
X105270Y142688D02*
D03*
X98470Y136388D02*
D03*
X115770Y151988D02*
D03*
X69370Y149588D02*
D03*
X102587Y169571D02*
D03*
X69370Y159588D02*
D03*
Y164588D02*
D03*
X109740Y106714D02*
D03*
X105240Y111214D02*
D03*
Y106714D02*
D03*
Y102214D02*
D03*
X100740Y106714D02*
D03*
X164961Y112205D02*
D03*
Y100394D02*
D03*
X125591Y118105D02*
D03*
X111478Y90869D02*
D03*
X35433Y94488D02*
D03*
Y118110D02*
D03*
X109853Y122327D02*
D03*
X93970Y111744D02*
D03*
X114840Y120979D02*
D03*
X105270Y95444D02*
D03*
X98470Y89144D02*
D03*
X115770Y104744D02*
D03*
X69370Y102344D02*
D03*
X102587Y122327D02*
D03*
X69370Y112344D02*
D03*
Y117344D02*
D03*
X109740Y59470D02*
D03*
X105240Y63970D02*
D03*
Y59470D02*
D03*
Y54970D02*
D03*
X100740Y59470D02*
D03*
X125591Y70861D02*
D03*
X111478Y43625D02*
D03*
X35433Y47244D02*
D03*
Y70866D02*
D03*
X109853Y75083D02*
D03*
X93970Y64500D02*
D03*
X114840Y73735D02*
D03*
X105270Y48200D02*
D03*
X98470Y41900D02*
D03*
X115770Y57500D02*
D03*
X69370Y55100D02*
D03*
X102587Y75083D02*
D03*
X69370Y65100D02*
D03*
Y70100D02*
D03*
D30*
X134370Y111969D02*
D03*
Y106968D02*
D03*
Y101969D02*
D03*
X139370Y111969D02*
D03*
Y106968D02*
D03*
Y101969D02*
D03*
Y96969D02*
D03*
Y91969D02*
D03*
X144370Y101969D02*
D03*
Y96969D02*
D03*
Y91969D02*
D03*
X134370Y64724D02*
D03*
Y59724D02*
D03*
Y54724D02*
D03*
X139370Y64724D02*
D03*
Y59724D02*
D03*
Y54724D02*
D03*
Y49724D02*
D03*
Y44724D02*
D03*
X144370Y54724D02*
D03*
Y49724D02*
D03*
Y44724D02*
D03*
M02*
