G04*
G04 #@! TF.GenerationSoftware,Altium Limited,Altium Designer,21.7.2 (23)*
G04*
G04 Layer_Color=65535*
%FSLAX25Y25*%
%MOIN*%
G70*
G04*
G04 #@! TF.SameCoordinates,1BD72AFC-BB09-4B1E-9220-9270CC418D61*
G04*
G04*
G04 #@! TF.FilePolarity,Positive*
G04*
G01*
G75*
%ADD26C,0.00800*%
%ADD27C,0.01000*%
%ADD34C,0.00787*%
%ADD35C,0.00500*%
D26*
X132500Y104644D02*
Y105977D01*
X133167Y106643D01*
X133833Y105977D01*
Y104644D01*
Y105644D01*
X132500D01*
X134499Y104644D02*
Y106643D01*
X135832Y104644D01*
Y106643D01*
X136499D02*
X137832D01*
X137165D01*
Y104644D01*
X138498D02*
X139164D01*
X138831D01*
Y106643D01*
X138498Y106310D01*
X237006Y124744D02*
X239006D01*
Y123744D01*
X238672Y123411D01*
X238006D01*
X237673Y123744D01*
Y124744D01*
Y124078D02*
X237006Y123411D01*
Y121412D02*
Y122745D01*
X238339Y121412D01*
X238672D01*
X239006Y121745D01*
Y122412D01*
X238672Y122745D01*
X200306Y101744D02*
Y103743D01*
X201306D01*
X201639Y103410D01*
Y102744D01*
X201306Y102410D01*
X200306D01*
X200973D02*
X201639Y101744D01*
X202306D02*
X202972D01*
X202639D01*
Y103743D01*
X202306Y103410D01*
X183639Y98343D02*
X182973D01*
X183306D01*
Y96677D01*
X182973Y96344D01*
X182640D01*
X182306Y96677D01*
X184306Y96344D02*
X184972D01*
X184639D01*
Y98343D01*
X184306Y98010D01*
X209339Y123310D02*
X209006Y123643D01*
X208340D01*
X208006Y123310D01*
Y121977D01*
X208340Y121644D01*
X209006D01*
X209339Y121977D01*
X210006Y121644D02*
X210672D01*
X210339D01*
Y123643D01*
X210006Y123310D01*
X211672D02*
X212005Y123643D01*
X212671D01*
X213005Y123310D01*
Y121977D01*
X212671Y121644D01*
X212005D01*
X211672Y121977D01*
Y123310D01*
X221239Y118676D02*
X220906Y119009D01*
X220239D01*
X219906Y118676D01*
Y117343D01*
X220239Y117009D01*
X220906D01*
X221239Y117343D01*
X221906D02*
X222239Y117009D01*
X222905D01*
X223238Y117343D01*
Y118676D01*
X222905Y119009D01*
X222239D01*
X221906Y118676D01*
Y118342D01*
X222239Y118009D01*
X223238D01*
X227706Y121043D02*
Y120710D01*
X228373Y120044D01*
X229039Y120710D01*
Y121043D01*
X228373Y120044D02*
Y119044D01*
X231038D02*
X229706D01*
X231038Y120377D01*
Y120710D01*
X230705Y121043D01*
X230039D01*
X229706Y120710D01*
X210406Y90043D02*
Y89710D01*
X211073Y89044D01*
X211739Y89710D01*
Y90043D01*
X211073Y89044D02*
Y88044D01*
X212406D02*
X213072D01*
X212739D01*
Y90043D01*
X212406Y89710D01*
X206006Y117743D02*
Y116077D01*
X206340Y115744D01*
X207006D01*
X207339Y116077D01*
Y117743D01*
X208006Y115744D02*
X208672D01*
X208339D01*
Y117743D01*
X208006Y117410D01*
X235172Y123411D02*
X235506Y123744D01*
Y124411D01*
X235172Y124744D01*
X233840D01*
X233506Y124411D01*
Y123744D01*
X233840Y123411D01*
X235172Y122745D02*
X235506Y122412D01*
Y121745D01*
X235172Y121412D01*
X234839D01*
X234506Y121745D01*
X234173Y121412D01*
X233840D01*
X233506Y121745D01*
Y122412D01*
X233840Y122745D01*
X234173D01*
X234506Y122412D01*
X234839Y122745D01*
X235172D01*
X234506Y122412D02*
Y121745D01*
X236039Y119810D02*
X235706Y120143D01*
X235039D01*
X234706Y119810D01*
Y118477D01*
X235039Y118144D01*
X235706D01*
X236039Y118477D01*
X236706Y120143D02*
X238038D01*
Y119810D01*
X236706Y118477D01*
Y118144D01*
X231739Y94210D02*
X231406Y94543D01*
X230739D01*
X230406Y94210D01*
Y92877D01*
X230739Y92544D01*
X231406D01*
X231739Y92877D01*
X233738Y94543D02*
X233072Y94210D01*
X232406Y93544D01*
Y92877D01*
X232739Y92544D01*
X233405D01*
X233738Y92877D01*
Y93211D01*
X233405Y93544D01*
X232406D01*
X223039Y90810D02*
X222706Y91143D01*
X222040D01*
X221706Y90810D01*
Y89477D01*
X222040Y89144D01*
X222706D01*
X223039Y89477D01*
X225039Y91143D02*
X223706D01*
Y90144D01*
X224372Y90477D01*
X224705D01*
X225039Y90144D01*
Y89477D01*
X224705Y89144D01*
X224039D01*
X223706Y89477D01*
X206439Y93610D02*
X206106Y93943D01*
X205439D01*
X205106Y93610D01*
Y92277D01*
X205439Y91944D01*
X206106D01*
X206439Y92277D01*
X207106Y93610D02*
X207439Y93943D01*
X208105D01*
X208438Y93610D01*
Y93277D01*
X208105Y92944D01*
X207772D01*
X208105D01*
X208438Y92611D01*
Y92277D01*
X208105Y91944D01*
X207439D01*
X207106Y92277D01*
X201539Y113210D02*
X201206Y113543D01*
X200539D01*
X200206Y113210D01*
Y111877D01*
X200539Y111544D01*
X201206D01*
X201539Y111877D01*
X203539Y111544D02*
X202206D01*
X203539Y112877D01*
Y113210D01*
X203205Y113543D01*
X202539D01*
X202206Y113210D01*
X221239Y123110D02*
X220906Y123443D01*
X220239D01*
X219906Y123110D01*
Y121777D01*
X220239Y121444D01*
X220906D01*
X221239Y121777D01*
X221906Y121444D02*
X222572D01*
X222239D01*
Y123443D01*
X221906Y123110D01*
X248006Y73799D02*
Y72133D01*
X248340Y71800D01*
X249006D01*
X249339Y72133D01*
Y73799D01*
X251339Y71800D02*
X250006D01*
X251339Y73133D01*
Y73466D01*
X251005Y73799D01*
X250339D01*
X250006Y73466D01*
X237006Y77500D02*
X239006D01*
Y76500D01*
X238672Y76167D01*
X238006D01*
X237673Y76500D01*
Y77500D01*
Y76834D02*
X237006Y76167D01*
Y74168D02*
Y75501D01*
X238339Y74168D01*
X238672D01*
X239006Y74501D01*
Y75167D01*
X238672Y75501D01*
X200306Y54500D02*
Y56499D01*
X201306D01*
X201639Y56166D01*
Y55500D01*
X201306Y55166D01*
X200306D01*
X200973D02*
X201639Y54500D01*
X202306D02*
X202972D01*
X202639D01*
Y56499D01*
X202306Y56166D01*
X183639Y51099D02*
X182973D01*
X183306D01*
Y49433D01*
X182973Y49100D01*
X182640D01*
X182306Y49433D01*
X184306Y49100D02*
X184972D01*
X184639D01*
Y51099D01*
X184306Y50766D01*
X209339Y76066D02*
X209006Y76399D01*
X208340D01*
X208006Y76066D01*
Y74733D01*
X208340Y74400D01*
X209006D01*
X209339Y74733D01*
X210006Y74400D02*
X210672D01*
X210339D01*
Y76399D01*
X210006Y76066D01*
X211672D02*
X212005Y76399D01*
X212671D01*
X213005Y76066D01*
Y74733D01*
X212671Y74400D01*
X212005D01*
X211672Y74733D01*
Y76066D01*
X221239Y71431D02*
X220906Y71765D01*
X220239D01*
X219906Y71431D01*
Y70099D01*
X220239Y69765D01*
X220906D01*
X221239Y70099D01*
X221906D02*
X222239Y69765D01*
X222905D01*
X223238Y70099D01*
Y71431D01*
X222905Y71765D01*
X222239D01*
X221906Y71431D01*
Y71098D01*
X222239Y70765D01*
X223238D01*
X227706Y73799D02*
Y73466D01*
X228373Y72800D01*
X229039Y73466D01*
Y73799D01*
X228373Y72800D02*
Y71800D01*
X231038D02*
X229706D01*
X231038Y73133D01*
Y73466D01*
X230705Y73799D01*
X230039D01*
X229706Y73466D01*
X210406Y42799D02*
Y42466D01*
X211073Y41800D01*
X211739Y42466D01*
Y42799D01*
X211073Y41800D02*
Y40800D01*
X212406D02*
X213072D01*
X212739D01*
Y42799D01*
X212406Y42466D01*
X206006Y70499D02*
Y68833D01*
X206340Y68500D01*
X207006D01*
X207339Y68833D01*
Y70499D01*
X208006Y68500D02*
X208672D01*
X208339D01*
Y70499D01*
X208006Y70166D01*
X235172Y76167D02*
X235506Y76500D01*
Y77167D01*
X235172Y77500D01*
X233840D01*
X233506Y77167D01*
Y76500D01*
X233840Y76167D01*
X235172Y75501D02*
X235506Y75167D01*
Y74501D01*
X235172Y74168D01*
X234839D01*
X234506Y74501D01*
X234173Y74168D01*
X233840D01*
X233506Y74501D01*
Y75167D01*
X233840Y75501D01*
X234173D01*
X234506Y75167D01*
X234839Y75501D01*
X235172D01*
X234506Y75167D02*
Y74501D01*
X236039Y72566D02*
X235706Y72899D01*
X235039D01*
X234706Y72566D01*
Y71233D01*
X235039Y70900D01*
X235706D01*
X236039Y71233D01*
X236706Y72899D02*
X238038D01*
Y72566D01*
X236706Y71233D01*
Y70900D01*
X227839Y42166D02*
X227506Y42499D01*
X226839D01*
X226506Y42166D01*
Y40833D01*
X226839Y40500D01*
X227506D01*
X227839Y40833D01*
X229838Y42499D02*
X229172Y42166D01*
X228506Y41500D01*
Y40833D01*
X228839Y40500D01*
X229505D01*
X229838Y40833D01*
Y41166D01*
X229505Y41500D01*
X228506D01*
X223039Y43566D02*
X222706Y43899D01*
X222040D01*
X221706Y43566D01*
Y42233D01*
X222040Y41900D01*
X222706D01*
X223039Y42233D01*
X225039Y43899D02*
X223706D01*
Y42900D01*
X224372Y43233D01*
X224705D01*
X225039Y42900D01*
Y42233D01*
X224705Y41900D01*
X224039D01*
X223706Y42233D01*
X206439Y46366D02*
X206106Y46699D01*
X205439D01*
X205106Y46366D01*
Y45033D01*
X205439Y44700D01*
X206106D01*
X206439Y45033D01*
X207106Y46366D02*
X207439Y46699D01*
X208105D01*
X208438Y46366D01*
Y46033D01*
X208105Y45700D01*
X207772D01*
X208105D01*
X208438Y45366D01*
Y45033D01*
X208105Y44700D01*
X207439D01*
X207106Y45033D01*
X201539Y65966D02*
X201206Y66299D01*
X200539D01*
X200206Y65966D01*
Y64633D01*
X200539Y64300D01*
X201206D01*
X201539Y64633D01*
X203538Y64300D02*
X202206D01*
X203538Y65633D01*
Y65966D01*
X203205Y66299D01*
X202539D01*
X202206Y65966D01*
X221239Y75866D02*
X220906Y76199D01*
X220239D01*
X219906Y75866D01*
Y74533D01*
X220239Y74200D01*
X220906D01*
X221239Y74533D01*
X221906Y74200D02*
X222572D01*
X222239D01*
Y76199D01*
X221906Y75866D01*
X98400Y73799D02*
Y72133D01*
X98733Y71800D01*
X99400D01*
X99733Y72133D01*
Y73799D01*
X101732Y71800D02*
X100399D01*
X101732Y73133D01*
Y73466D01*
X101399Y73799D01*
X100733D01*
X100399Y73466D01*
X132500Y57400D02*
Y58733D01*
X133167Y59399D01*
X133833Y58733D01*
Y57400D01*
Y58400D01*
X132500D01*
X134499Y57400D02*
Y59399D01*
X135832Y57400D01*
Y59399D01*
X136499D02*
X137832D01*
X137165D01*
Y57400D01*
X138498D02*
X139164D01*
X138831D01*
Y59399D01*
X138498Y59066D01*
X87400Y77500D02*
X89399D01*
Y76500D01*
X89066Y76167D01*
X88400D01*
X88066Y76500D01*
Y77500D01*
Y76834D02*
X87400Y76167D01*
Y74168D02*
Y75501D01*
X88733Y74168D01*
X89066D01*
X89399Y74501D01*
Y75167D01*
X89066Y75501D01*
X50700Y54500D02*
Y56499D01*
X51700D01*
X52033Y56166D01*
Y55500D01*
X51700Y55166D01*
X50700D01*
X51366D02*
X52033Y54500D01*
X52699D02*
X53366D01*
X53033D01*
Y56499D01*
X52699Y56166D01*
X34033Y51099D02*
X33366D01*
X33700D01*
Y49433D01*
X33366Y49100D01*
X33033D01*
X32700Y49433D01*
X34699Y49100D02*
X35366D01*
X35033D01*
Y51099D01*
X34699Y50766D01*
X59733Y76066D02*
X59400Y76399D01*
X58733D01*
X58400Y76066D01*
Y74733D01*
X58733Y74400D01*
X59400D01*
X59733Y74733D01*
X60399Y74400D02*
X61066D01*
X60733D01*
Y76399D01*
X60399Y76066D01*
X62066D02*
X62399Y76399D01*
X63065D01*
X63398Y76066D01*
Y74733D01*
X63065Y74400D01*
X62399D01*
X62066Y74733D01*
Y76066D01*
X71633Y71431D02*
X71300Y71765D01*
X70633D01*
X70300Y71431D01*
Y70099D01*
X70633Y69765D01*
X71300D01*
X71633Y70099D01*
X72299D02*
X72633Y69765D01*
X73299D01*
X73632Y70099D01*
Y71431D01*
X73299Y71765D01*
X72633D01*
X72299Y71431D01*
Y71098D01*
X72633Y70765D01*
X73632D01*
X78100Y73799D02*
Y73466D01*
X78766Y72800D01*
X79433Y73466D01*
Y73799D01*
X78766Y72800D02*
Y71800D01*
X81432D02*
X80099D01*
X81432Y73133D01*
Y73466D01*
X81099Y73799D01*
X80433D01*
X80099Y73466D01*
X60800Y42799D02*
Y42466D01*
X61466Y41800D01*
X62133Y42466D01*
Y42799D01*
X61466Y41800D02*
Y40800D01*
X62799D02*
X63466D01*
X63133D01*
Y42799D01*
X62799Y42466D01*
X56400Y70499D02*
Y68833D01*
X56733Y68500D01*
X57400D01*
X57733Y68833D01*
Y70499D01*
X58399Y68500D02*
X59066D01*
X58733D01*
Y70499D01*
X58399Y70166D01*
X85566Y76167D02*
X85899Y76500D01*
Y77167D01*
X85566Y77500D01*
X84233D01*
X83900Y77167D01*
Y76500D01*
X84233Y76167D01*
X85566Y75501D02*
X85899Y75167D01*
Y74501D01*
X85566Y74168D01*
X85233D01*
X84900Y74501D01*
X84566Y74168D01*
X84233D01*
X83900Y74501D01*
Y75167D01*
X84233Y75501D01*
X84566D01*
X84900Y75167D01*
X85233Y75501D01*
X85566D01*
X84900Y75167D02*
Y74501D01*
X86433Y72566D02*
X86100Y72899D01*
X85433D01*
X85100Y72566D01*
Y71233D01*
X85433Y70900D01*
X86100D01*
X86433Y71233D01*
X87099Y72899D02*
X88432D01*
Y72566D01*
X87099Y71233D01*
Y70900D01*
X78233Y42166D02*
X77900Y42499D01*
X77233D01*
X76900Y42166D01*
Y40833D01*
X77233Y40500D01*
X77900D01*
X78233Y40833D01*
X80232Y42499D02*
X79566Y42166D01*
X78899Y41500D01*
Y40833D01*
X79233Y40500D01*
X79899D01*
X80232Y40833D01*
Y41166D01*
X79899Y41500D01*
X78899D01*
X73433Y43566D02*
X73100Y43899D01*
X72433D01*
X72100Y43566D01*
Y42233D01*
X72433Y41900D01*
X73100D01*
X73433Y42233D01*
X75432Y43899D02*
X74099D01*
Y42900D01*
X74766Y43233D01*
X75099D01*
X75432Y42900D01*
Y42233D01*
X75099Y41900D01*
X74433D01*
X74099Y42233D01*
X56833Y46366D02*
X56500Y46699D01*
X55833D01*
X55500Y46366D01*
Y45033D01*
X55833Y44700D01*
X56500D01*
X56833Y45033D01*
X57499Y46366D02*
X57833Y46699D01*
X58499D01*
X58832Y46366D01*
Y46033D01*
X58499Y45700D01*
X58166D01*
X58499D01*
X58832Y45366D01*
Y45033D01*
X58499Y44700D01*
X57833D01*
X57499Y45033D01*
X51933Y65966D02*
X51600Y66299D01*
X50933D01*
X50600Y65966D01*
Y64633D01*
X50933Y64300D01*
X51600D01*
X51933Y64633D01*
X53932Y64300D02*
X52599D01*
X53932Y65633D01*
Y65966D01*
X53599Y66299D01*
X52933D01*
X52599Y65966D01*
X71633Y75866D02*
X71300Y76199D01*
X70633D01*
X70300Y75866D01*
Y74533D01*
X70633Y74200D01*
X71300D01*
X71633Y74533D01*
X72299Y74200D02*
X72966D01*
X72633D01*
Y76199D01*
X72299Y75866D01*
D27*
X118110Y86614D02*
X157480D01*
X118110Y125984D02*
X157480D01*
Y86614D02*
Y125984D01*
X118110Y86614D02*
Y125984D01*
X18000Y93343D02*
Y90844D01*
X18500Y90344D01*
X19500D01*
X19999Y90844D01*
Y93343D01*
X20999Y90344D02*
Y93343D01*
X21999Y92343D01*
X22998Y93343D01*
Y90344D01*
X28996Y92843D02*
X28497Y93343D01*
X27497D01*
X26997Y92843D01*
Y90844D01*
X27497Y90344D01*
X28497D01*
X28996Y90844D01*
X31496Y93343D02*
X30496D01*
X29996Y92843D01*
Y90844D01*
X30496Y90344D01*
X31496D01*
X31995Y90844D01*
Y92843D01*
X31496Y93343D01*
X32995D02*
X34995D01*
X33995D01*
Y90344D01*
X37993Y92843D02*
X37494Y93343D01*
X36494D01*
X35994Y92843D01*
Y92343D01*
X36494Y91843D01*
X37494D01*
X37993Y91343D01*
Y90844D01*
X37494Y90344D01*
X36494D01*
X35994Y90844D01*
X41992Y90344D02*
Y92343D01*
X43492D01*
X43992Y91843D01*
Y90344D01*
X45491D02*
X46491D01*
X46991Y90844D01*
Y91843D01*
X46491Y92343D01*
X45491D01*
X44991Y91843D01*
Y90844D01*
X45491Y90344D01*
X50989D02*
X52489D01*
X52989Y90844D01*
X52489Y91343D01*
X51489D01*
X50989Y91843D01*
X51489Y92343D01*
X52989D01*
X53988Y90344D02*
X54988D01*
X54488D01*
Y92343D01*
X53988D01*
X57487Y89344D02*
X57987D01*
X58487Y89844D01*
Y92343D01*
X56987D01*
X56488Y91843D01*
Y90844D01*
X56987Y90344D01*
X58487D01*
X60486Y89344D02*
X60986D01*
X61486Y89844D01*
Y92343D01*
X59986D01*
X59487Y91843D01*
Y90844D01*
X59986Y90344D01*
X61486D01*
X63985D02*
X62985D01*
X62486Y90844D01*
Y91843D01*
X62985Y92343D01*
X63985D01*
X64485Y91843D01*
Y91343D01*
X62486D01*
X65485Y90344D02*
Y92343D01*
X66984D01*
X67484Y91843D01*
Y90344D01*
X71483Y92343D02*
X72482Y90344D01*
X73482Y92343D01*
X74482Y92843D02*
X74982Y93343D01*
X75981D01*
X76481Y92843D01*
Y90844D01*
X75981Y90344D01*
X74982D01*
X74482Y90844D01*
Y92843D01*
X77481Y90344D02*
Y90844D01*
X77981D01*
Y90344D01*
X77481D01*
X79980D02*
X80980D01*
X80480D01*
Y93343D01*
X79980Y92843D01*
X102200Y116644D02*
Y119643D01*
X103700D01*
X104199Y119143D01*
Y118144D01*
X103700Y117644D01*
X102200D01*
X105199Y116644D02*
X106199D01*
X105699D01*
Y119643D01*
X105199Y119143D01*
X263406Y101642D02*
Y99143D01*
X263906Y98643D01*
X264906D01*
X265406Y99143D01*
Y101642D01*
X266405Y98643D02*
Y101642D01*
X267405Y100642D01*
X268405Y101642D01*
Y98643D01*
X274403Y101142D02*
X273903Y101642D01*
X272903D01*
X272403Y101142D01*
Y99143D01*
X272903Y98643D01*
X273903D01*
X274403Y99143D01*
X276902Y101642D02*
X275902D01*
X275402Y101142D01*
Y99143D01*
X275902Y98643D01*
X276902D01*
X277402Y99143D01*
Y101142D01*
X276902Y101642D01*
X278401D02*
X280401D01*
X279401D01*
Y98643D01*
X283400Y101142D02*
X282900Y101642D01*
X281900D01*
X281400Y101142D01*
Y100642D01*
X281900Y100142D01*
X282900D01*
X283400Y99643D01*
Y99143D01*
X282900Y98643D01*
X281900D01*
X281400Y99143D01*
X287399Y98643D02*
Y100642D01*
X288898D01*
X289398Y100142D01*
Y98643D01*
X290897D02*
X291897D01*
X292397Y99143D01*
Y100142D01*
X291897Y100642D01*
X290897D01*
X290398Y100142D01*
Y99143D01*
X290897Y98643D01*
X263406Y92644D02*
Y94643D01*
X263906D01*
X264406Y94144D01*
Y92644D01*
Y94144D01*
X264906Y94643D01*
X265406Y94144D01*
Y92644D01*
X266405Y94643D02*
Y93144D01*
X266905Y92644D01*
X268405D01*
Y94643D01*
X269404Y92644D02*
X270404D01*
X269904D01*
Y95643D01*
X269404D01*
X272403Y95143D02*
Y94643D01*
X271903D01*
X272903D01*
X272403D01*
Y93144D01*
X272903Y92644D01*
X277402Y94643D02*
X278401Y92644D01*
X279401Y94643D01*
X280401Y95143D02*
X280901Y95643D01*
X281900D01*
X282400Y95143D01*
Y93144D01*
X281900Y92644D01*
X280901D01*
X280401Y93144D01*
Y95143D01*
X283400Y92644D02*
Y93144D01*
X283900D01*
Y92644D01*
X283400D01*
X285899D02*
X286899D01*
X286399D01*
Y95643D01*
X285899Y95143D01*
X249406Y107544D02*
Y110543D01*
X250906D01*
X251406Y110043D01*
Y109044D01*
X250906Y108544D01*
X249406D01*
X252405Y107544D02*
X253405D01*
X252905D01*
Y110543D01*
X252405Y110043D01*
X266706Y51198D02*
Y48699D01*
X267206Y48199D01*
X268206D01*
X268706Y48699D01*
Y51198D01*
X269705Y48199D02*
Y51198D01*
X270705Y50198D01*
X271705Y51198D01*
Y48199D01*
X277703Y50698D02*
X277203Y51198D01*
X276203D01*
X275703Y50698D01*
Y48699D01*
X276203Y48199D01*
X277203D01*
X277703Y48699D01*
X280202Y51198D02*
X279202D01*
X278702Y50698D01*
Y48699D01*
X279202Y48199D01*
X280202D01*
X280702Y48699D01*
Y50698D01*
X280202Y51198D01*
X281701D02*
X283701D01*
X282701D01*
Y48199D01*
X286700Y50698D02*
X286200Y51198D01*
X285200D01*
X284700Y50698D01*
Y50198D01*
X285200Y49698D01*
X286200D01*
X286700Y49198D01*
Y48699D01*
X286200Y48199D01*
X285200D01*
X284700Y48699D01*
X290699Y48199D02*
Y50198D01*
X292198D01*
X292698Y49698D01*
Y48199D01*
X294197D02*
X295197D01*
X295697Y48699D01*
Y49698D01*
X295197Y50198D01*
X294197D01*
X293698Y49698D01*
Y48699D01*
X294197Y48199D01*
X267206Y44199D02*
X268206D01*
X268706Y43699D01*
Y42200D01*
X267206D01*
X266706Y42700D01*
X267206Y43200D01*
X268706D01*
X269705Y42200D02*
Y44199D01*
X271205D01*
X271705Y43699D01*
Y42200D01*
X273204Y44699D02*
Y44199D01*
X272704D01*
X273704D01*
X273204D01*
Y42700D01*
X273704Y42200D01*
X278203Y44199D02*
X279202Y42200D01*
X280202Y44199D01*
X281202Y44699D02*
X281701Y45199D01*
X282701D01*
X283201Y44699D01*
Y42700D01*
X282701Y42200D01*
X281701D01*
X281202Y42700D01*
Y44699D01*
X284201Y42200D02*
Y42700D01*
X284700D01*
Y42200D01*
X284201D01*
X286700D02*
X287700D01*
X287200D01*
Y45199D01*
X286700Y44699D01*
X289306Y63900D02*
Y66899D01*
X290806D01*
X291306Y66399D01*
Y65399D01*
X290806Y64900D01*
X289306D01*
X292305Y63900D02*
X293305D01*
X292805D01*
Y66899D01*
X292305Y66399D01*
X118110Y39370D02*
X157480D01*
X118110Y78740D02*
X157480D01*
Y39370D02*
Y78740D01*
X118110Y39370D02*
Y78740D01*
X18000Y45099D02*
Y42600D01*
X18500Y42100D01*
X19500D01*
X19999Y42600D01*
Y45099D01*
X20999Y42100D02*
Y45099D01*
X21999Y44099D01*
X22998Y45099D01*
Y42100D01*
X28996Y44599D02*
X28497Y45099D01*
X27497D01*
X26997Y44599D01*
Y42600D01*
X27497Y42100D01*
X28497D01*
X28996Y42600D01*
X31496Y45099D02*
X30496D01*
X29996Y44599D01*
Y42600D01*
X30496Y42100D01*
X31496D01*
X31995Y42600D01*
Y44599D01*
X31496Y45099D01*
X32995D02*
X34995D01*
X33995D01*
Y42100D01*
X37993Y44599D02*
X37494Y45099D01*
X36494D01*
X35994Y44599D01*
Y44099D01*
X36494Y43600D01*
X37494D01*
X37993Y43100D01*
Y42600D01*
X37494Y42100D01*
X36494D01*
X35994Y42600D01*
X41992Y44099D02*
X42992Y42100D01*
X43992Y44099D01*
X44991Y44599D02*
X45491Y45099D01*
X46491D01*
X46991Y44599D01*
Y42600D01*
X46491Y42100D01*
X45491D01*
X44991Y42600D01*
Y44599D01*
X47990Y42100D02*
Y42600D01*
X48490D01*
Y42100D01*
X47990D01*
X50489D02*
X51489D01*
X50989D01*
Y45099D01*
X50489Y44599D01*
D34*
X180238Y122187D02*
G03*
X180238Y122187I-394J0D01*
G01*
X227425Y101202D02*
G03*
X227425Y101202I-394J0D01*
G01*
X180238Y74942D02*
G03*
X180238Y74942I-394J0D01*
G01*
X227425Y53958D02*
G03*
X227425Y53958I-394J0D01*
G01*
X30632Y74942D02*
G03*
X30632Y74942I-394J0D01*
G01*
X77819Y53958D02*
G03*
X77819Y53958I-394J0D01*
G01*
D35*
X207405Y98643D02*
X208272D01*
X207405D02*
Y99510D01*
Y114785D02*
X208272D01*
X207405Y113919D02*
Y114785D01*
X222681Y98643D02*
X223547D01*
Y99510D01*
Y113919D02*
Y114785D01*
X222681D02*
X223547D01*
X207405Y51399D02*
X208272D01*
X207405D02*
Y52265D01*
Y67541D02*
X208272D01*
X207405Y66675D02*
Y67541D01*
X222681Y51399D02*
X223547D01*
Y52265D01*
Y66675D02*
Y67541D01*
X222681D02*
X223547D01*
X57799Y51399D02*
X58665D01*
X57799D02*
Y52265D01*
Y67541D02*
X58665D01*
X57799Y66675D02*
Y67541D01*
X73075Y51399D02*
X73941D01*
Y52265D01*
Y66675D02*
Y67541D01*
X73075D02*
X73941D01*
M02*
