G04*
G04 #@! TF.GenerationSoftware,Altium Limited,Altium Designer,21.8.1 (53)*
G04*
G04 Layer_Color=32896*
%FSLAX25Y25*%
%MOIN*%
G70*
G04*
G04 #@! TF.SameCoordinates,29F7A3E2-1687-429F-A7F6-D3F78D144AE6*
G04*
G04*
G04 #@! TF.FilePolarity,Positive*
G04*
G01*
G75*
%ADD26C,0.00800*%
%ADD34C,0.00500*%
D26*
X45669Y170897D02*
Y168898D01*
X44670D01*
X44336Y169231D01*
Y169564D01*
X44670Y169897D01*
X45669D01*
X44670D01*
X44336Y170230D01*
Y170564D01*
X44670Y170897D01*
X45669D01*
X43670D02*
X42337D01*
X43003D01*
Y168898D01*
X41671Y170564D02*
X41337Y170897D01*
X40671D01*
X40338Y170564D01*
Y170230D01*
X40671Y169897D01*
X41004D01*
X40671D01*
X40338Y169564D01*
Y169231D01*
X40671Y168898D01*
X41337D01*
X41671Y169231D01*
X39671Y168898D02*
X39005D01*
X39338D01*
Y170897D01*
X39671Y170564D01*
X45669Y123653D02*
Y121653D01*
X44670D01*
X44336Y121987D01*
Y122320D01*
X44670Y122653D01*
X45669D01*
X44670D01*
X44336Y122986D01*
Y123320D01*
X44670Y123653D01*
X45669D01*
X43670D02*
X42337D01*
X43003D01*
Y121653D01*
X40338D02*
X41671D01*
X40338Y122986D01*
Y123320D01*
X40671Y123653D01*
X41337D01*
X41671Y123320D01*
X39671Y121653D02*
X39005D01*
X39338D01*
Y123653D01*
X39671Y123320D01*
X45669Y76409D02*
Y74410D01*
X44670D01*
X44336Y74743D01*
Y75076D01*
X44670Y75409D01*
X45669D01*
X44670D01*
X44336Y75742D01*
Y76076D01*
X44670Y76409D01*
X45669D01*
X43670D02*
X42337D01*
X43003D01*
Y74410D01*
X41671D02*
X41004D01*
X41337D01*
Y76409D01*
X41671Y76076D01*
D34*
X122047Y164842D02*
Y172835D01*
X104134D02*
X122047D01*
X38976D02*
X56890D01*
X38976Y164842D02*
Y172835D01*
X122047Y134252D02*
Y142244D01*
X102165Y134252D02*
X122047D01*
X38976D02*
X58858D01*
X38976D02*
Y142244D01*
X122047Y117598D02*
Y125591D01*
X104134D02*
X122047D01*
X38976D02*
X56890D01*
X38976Y117598D02*
Y125591D01*
X122047Y87008D02*
Y95000D01*
X102165Y87008D02*
X122047D01*
X38976D02*
X58858D01*
X38976D02*
Y95000D01*
X122047Y70354D02*
Y78347D01*
X104134D02*
X122047D01*
X38976D02*
X56890D01*
X38976Y70354D02*
Y78347D01*
X122047Y39764D02*
Y47756D01*
X102165Y39764D02*
X122047D01*
X38976D02*
X58858D01*
X38976D02*
Y47756D01*
M02*
