G04*
G04 #@! TF.GenerationSoftware,Altium Limited,Altium Designer,21.8.1 (53)*
G04*
G04 Layer_Color=16711935*
%FSLAX25Y25*%
%MOIN*%
G70*
G04*
G04 #@! TF.SameCoordinates,29F7A3E2-1687-429F-A7F6-D3F78D144AE6*
G04*
G04*
G04 #@! TF.FilePolarity,Negative*
G04*
G01*
G75*
%ADD48C,0.02800*%
%ADD49R,0.04737X0.04737*%
G04:AMPARAMS|DCode=50|XSize=708.79mil|YSize=362.33mil|CornerRadius=92.58mil|HoleSize=0mil|Usage=FLASHONLY|Rotation=180.000|XOffset=0mil|YOffset=0mil|HoleType=Round|Shape=RoundedRectangle|*
%AMROUNDEDRECTD50*
21,1,0.70879,0.17717,0,0,180.0*
21,1,0.52362,0.36233,0,0,180.0*
1,1,0.18517,-0.26181,0.08858*
1,1,0.18517,0.26181,0.08858*
1,1,0.18517,0.26181,-0.08858*
1,1,0.18517,-0.26181,-0.08858*
%
%ADD50ROUNDEDRECTD50*%
%ADD51R,0.10642X0.20879*%
D48*
X109740Y153958D02*
D03*
X105240Y158458D02*
D03*
Y153958D02*
D03*
Y149458D02*
D03*
X100740Y153958D02*
D03*
X125591Y165349D02*
D03*
X35433Y141732D02*
D03*
Y165354D02*
D03*
X109740Y106714D02*
D03*
X105240Y111214D02*
D03*
Y106714D02*
D03*
Y102214D02*
D03*
X100740Y106714D02*
D03*
X125591Y118105D02*
D03*
X35433Y94488D02*
D03*
Y118110D02*
D03*
X109740Y59470D02*
D03*
X105240Y63970D02*
D03*
Y59470D02*
D03*
Y54970D02*
D03*
X100740Y59470D02*
D03*
X125591Y70861D02*
D03*
X35433Y47244D02*
D03*
Y70866D02*
D03*
D49*
X159449Y200815D02*
D03*
Y59083D02*
D03*
D50*
X80512Y153543D02*
D03*
Y106299D02*
D03*
Y59055D02*
D03*
D51*
X125591Y153543D02*
D03*
X35433D02*
D03*
X125591Y106299D02*
D03*
X35433D02*
D03*
X125591Y59055D02*
D03*
X35433D02*
D03*
M02*
