G04*
G04 #@! TF.GenerationSoftware,Altium Limited,Altium Designer,21.7.2 (23)*
G04*
G04 Layer_Physical_Order=2*
G04 Layer_Color=16711680*
%FSLAX25Y25*%
%MOIN*%
G70*
G04*
G04 #@! TF.SameCoordinates,D4CAA96F-CDB5-4432-BAFE-8E841FC0C0B1*
G04*
G04*
G04 #@! TF.FilePolarity,Positive*
G04*
G01*
G75*
%ADD10C,0.00050*%
%ADD13R,0.03937X0.03937*%
%ADD26C,0.00800*%
%ADD30C,0.02000*%
%ADD31C,0.02400*%
%ADD32R,0.02835X0.03858*%
%ADD33R,0.04921X0.07087*%
G36*
X140772Y125822D02*
X143116Y125317D01*
X145382Y124531D01*
X147535Y123475D01*
X149545Y122166D01*
X151380Y120623D01*
X153015Y118869D01*
X154425Y116929D01*
X155589Y114832D01*
X156490Y112609D01*
X157114Y110294D01*
X157452Y107920D01*
X157476Y106721D01*
D01*
Y106721D01*
Y106721D01*
X149600D01*
X149522Y107737D01*
X149105Y109731D01*
X148352Y111624D01*
X147285Y113359D01*
X145935Y114885D01*
X144344Y116156D01*
X142558Y117135D01*
X140630Y117793D01*
X138618Y118109D01*
X136581Y118075D01*
X134580Y117692D01*
X132675Y116970D01*
X130923Y115932D01*
X129374Y114609D01*
X128077Y113039D01*
X127068Y111269D01*
X126378Y109352D01*
X126028Y107345D01*
Y105308D01*
X126378Y103302D01*
X127068Y101385D01*
X128077Y99615D01*
X129374Y98045D01*
X130923Y96721D01*
X132675Y95683D01*
X134580Y94962D01*
X136581Y94578D01*
X138618Y94545D01*
X140630Y94861D01*
X142558Y95519D01*
X144344Y96498D01*
X145935Y97769D01*
X147285Y99295D01*
X148352Y101030D01*
X149105Y102923D01*
X149522Y104917D01*
X149600Y105933D01*
X149600Y105933D01*
X157476D01*
X157452Y104734D01*
X157114Y102360D01*
X156490Y100045D01*
X155589Y97822D01*
X154425Y95725D01*
X153015Y93785D01*
X151380Y92031D01*
X149545Y90487D01*
X147535Y89178D01*
X145382Y88123D01*
X143116Y87337D01*
X140772Y86831D01*
X138384Y86614D01*
X135987Y86689D01*
X133616Y87053D01*
X131308Y87703D01*
X129095Y88628D01*
X127012Y89815D01*
X125087Y91246D01*
X123351Y92900D01*
X121828Y94752D01*
X120541Y96776D01*
X119509Y98941D01*
X118748Y101215D01*
X118508Y102390D01*
X117500D01*
Y87430D01*
X16564D01*
Y125169D01*
X117500D01*
Y110264D01*
X118508Y110264D01*
X118748Y111439D01*
X119509Y113713D01*
X120541Y115878D01*
X121828Y117902D01*
X123351Y119754D01*
X125087Y121408D01*
X127012Y122839D01*
X129095Y124026D01*
X131308Y124951D01*
X133616Y125601D01*
X135987Y125965D01*
X138384Y126040D01*
X140772Y125822D01*
D02*
G37*
G36*
X306271Y87430D02*
X212261D01*
X212109Y87930D01*
X212416Y88135D01*
X212725Y88598D01*
X212781Y88878D01*
X217056D01*
X217056Y88878D01*
X217368Y88941D01*
X217633Y89117D01*
X223382Y94866D01*
X223559Y95131D01*
X223621Y95443D01*
X223621Y95443D01*
Y95904D01*
X223815Y96034D01*
X224124Y96497D01*
X224233Y97043D01*
X224124Y97589D01*
X223815Y98052D01*
X223351Y98362D01*
X222805Y98470D01*
X222259Y98362D01*
X221796Y98052D01*
X221486Y97589D01*
X221378Y97043D01*
X221486Y96497D01*
X221796Y96034D01*
X221703Y95494D01*
X216718Y90510D01*
X211717D01*
X211406Y90571D01*
X211377Y90595D01*
Y95043D01*
X207743D01*
Y90385D01*
X209012D01*
X210024Y89372D01*
X209979Y89144D01*
X210087Y88598D01*
X210397Y88135D01*
X210704Y87930D01*
X210552Y87430D01*
X166170D01*
Y125169D01*
X306271D01*
Y87430D01*
D02*
G37*
G36*
X140772Y78578D02*
X143116Y78073D01*
X145382Y77287D01*
X147535Y76231D01*
X149545Y74922D01*
X151380Y73379D01*
X153015Y71624D01*
X154425Y69684D01*
X155589Y67588D01*
X156490Y65365D01*
X157114Y63050D01*
X157452Y60675D01*
X157476Y59477D01*
D01*
Y59477D01*
Y59477D01*
X149600D01*
X149522Y60493D01*
X149105Y62487D01*
X148352Y64380D01*
X147285Y66115D01*
X145935Y67641D01*
X144344Y68912D01*
X142558Y69891D01*
X140630Y70549D01*
X138618Y70865D01*
X136581Y70831D01*
X134580Y70448D01*
X132675Y69726D01*
X130923Y68688D01*
X129374Y67365D01*
X128077Y65794D01*
X127068Y64025D01*
X126378Y62108D01*
X126028Y60101D01*
Y58064D01*
X126378Y56058D01*
X127068Y54141D01*
X128077Y52371D01*
X129374Y50801D01*
X130923Y49477D01*
X132675Y48439D01*
X134580Y47718D01*
X136581Y47334D01*
X138618Y47300D01*
X140630Y47617D01*
X142558Y48274D01*
X144344Y49254D01*
X145935Y50525D01*
X147285Y52051D01*
X148352Y53786D01*
X149105Y55679D01*
X149522Y57673D01*
X149600Y58689D01*
X149600Y58689D01*
X157476D01*
X157452Y57490D01*
X157114Y55116D01*
X156490Y52801D01*
X155589Y50578D01*
X154425Y48481D01*
X153015Y46541D01*
X151380Y44787D01*
X149545Y43243D01*
X147535Y41934D01*
X145382Y40879D01*
X143116Y40093D01*
X140772Y39587D01*
X138384Y39370D01*
X135987Y39444D01*
X133616Y39809D01*
X131308Y40459D01*
X129095Y41384D01*
X127012Y42571D01*
X125087Y44002D01*
X123351Y45656D01*
X121828Y47508D01*
X120541Y49532D01*
X119509Y51697D01*
X118748Y53971D01*
X118508Y55146D01*
X117500D01*
Y40186D01*
X62654D01*
X62503Y40686D01*
X62809Y40891D01*
X63119Y41354D01*
X63175Y41634D01*
X67450D01*
X67450Y41634D01*
X67762Y41696D01*
X68027Y41873D01*
X73776Y47622D01*
X73952Y47887D01*
X74015Y48199D01*
X74015Y48199D01*
Y48660D01*
X74208Y48790D01*
X74518Y49253D01*
X74626Y49799D01*
X74518Y50345D01*
X74208Y50808D01*
X73745Y51118D01*
X73199Y51226D01*
X72653Y51118D01*
X72189Y50808D01*
X71880Y50345D01*
X71771Y49799D01*
X71880Y49253D01*
X72189Y48790D01*
X72097Y48250D01*
X67112Y43266D01*
X62111D01*
X61800Y43327D01*
X61771Y43351D01*
Y47799D01*
X58136D01*
Y43141D01*
X59405D01*
X60418Y42128D01*
X60373Y41900D01*
X60481Y41354D01*
X60791Y40891D01*
X61097Y40686D01*
X60946Y40186D01*
X16564D01*
Y77925D01*
X117500D01*
Y63020D01*
X118508Y63020D01*
X118748Y64195D01*
X119509Y66469D01*
X120541Y68634D01*
X121828Y70657D01*
X123351Y72510D01*
X125087Y74164D01*
X127012Y75595D01*
X129095Y76782D01*
X131308Y77707D01*
X133616Y78356D01*
X135987Y78721D01*
X138384Y78796D01*
X140772Y78578D01*
D02*
G37*
G36*
X306271Y40186D02*
X212261D01*
X212109Y40686D01*
X212416Y40891D01*
X212725Y41354D01*
X212781Y41634D01*
X217056D01*
X217056Y41634D01*
X217368Y41696D01*
X217633Y41873D01*
X223382Y47622D01*
X223559Y47887D01*
X223621Y48199D01*
X223621Y48199D01*
Y48660D01*
X223815Y48790D01*
X224124Y49253D01*
X224233Y49799D01*
X224124Y50345D01*
X223815Y50808D01*
X223351Y51118D01*
X222805Y51226D01*
X222259Y51118D01*
X221796Y50808D01*
X221486Y50345D01*
X221378Y49799D01*
X221486Y49253D01*
X221796Y48790D01*
X221703Y48250D01*
X216718Y43266D01*
X211717D01*
X211406Y43327D01*
X211377Y43351D01*
Y47799D01*
X207743D01*
Y43141D01*
X209012D01*
X210024Y42128D01*
X209979Y41900D01*
X210087Y41354D01*
X210397Y40891D01*
X210704Y40686D01*
X210552Y40186D01*
X166170D01*
Y77925D01*
X306271D01*
Y40186D01*
D02*
G37*
%LPC*%
G36*
X108100Y109574D02*
X98500D01*
Y103244D01*
X108100D01*
Y109574D01*
D02*
G37*
G36*
X217839Y119571D02*
X217292Y119463D01*
X216829Y119153D01*
X216520Y118690D01*
X216411Y118144D01*
X216520Y117598D01*
X216829Y117135D01*
X217292Y116825D01*
X217839Y116717D01*
X218385Y116825D01*
X218848Y117135D01*
X218977Y117328D01*
X248491D01*
X250976Y114843D01*
Y109193D01*
X256698D01*
Y117079D01*
X251047D01*
X249406Y118721D01*
X249141Y118898D01*
X248829Y118960D01*
X248829Y118960D01*
X218977D01*
X218848Y119153D01*
X218385Y119463D01*
X217839Y119571D01*
D02*
G37*
G36*
X257006Y100444D02*
X247406D01*
Y94114D01*
X257006D01*
Y100444D01*
D02*
G37*
G36*
X68232Y72327D02*
X67686Y72219D01*
X67223Y71909D01*
X66913Y71446D01*
X66805Y70900D01*
X66913Y70354D01*
X67223Y69891D01*
X67686Y69581D01*
X68232Y69473D01*
X68779Y69581D01*
X69242Y69891D01*
X69371Y70084D01*
X98885D01*
X101370Y67599D01*
Y61949D01*
X107091D01*
Y69835D01*
X101441D01*
X99800Y71477D01*
X99535Y71654D01*
X99223Y71716D01*
X99223Y71716D01*
X69371D01*
X69242Y71909D01*
X68779Y72219D01*
X68232Y72327D01*
D02*
G37*
G36*
X217839D02*
X217292Y72219D01*
X216829Y71909D01*
X216520Y71446D01*
X216411Y70900D01*
X216520Y70354D01*
X216829Y69891D01*
X217292Y69581D01*
X217839Y69473D01*
X218385Y69581D01*
X218848Y69891D01*
X218977Y70084D01*
X248491D01*
X250976Y67599D01*
Y61949D01*
X256698D01*
Y69835D01*
X251047D01*
X249406Y71477D01*
X249141Y71654D01*
X248829Y71716D01*
X248829Y71716D01*
X218977D01*
X218848Y71909D01*
X218385Y72219D01*
X217839Y72327D01*
D02*
G37*
G36*
X283806Y68200D02*
X274206D01*
Y61870D01*
X283806D01*
Y68200D01*
D02*
G37*
%LPD*%
D10*
X157476Y106721D02*
G03*
X118508Y110264I-19681J-394D01*
G01*
X149600Y106721D02*
G03*
X149600Y105933I-11804J-394D01*
G01*
X118508Y102390D02*
G03*
X157476Y105933I19287J3937D01*
G01*
X149600Y106721D02*
X157476D01*
X149600Y105933D02*
X157476D01*
X117323Y110264D02*
X118508D01*
X117323Y102390D02*
Y110264D01*
Y102390D02*
X118508D01*
X157476Y59477D02*
G03*
X118508Y63020I-19681J-394D01*
G01*
X149600Y59477D02*
G03*
X149600Y58689I-11804J-394D01*
G01*
X118508Y55146D02*
G03*
X157476Y58689I19287J3937D01*
G01*
X149600Y59477D02*
X157476D01*
X149600Y58689D02*
X157476D01*
X117323Y63020D02*
X118508D01*
X117323Y55146D02*
Y63020D01*
Y55146D02*
X118508D01*
D13*
X120079Y106327D02*
D03*
Y59083D02*
D03*
D26*
X217839Y118144D02*
X248829D01*
X253837Y113136D01*
X210856Y89694D02*
X217056D01*
X222805Y95443D02*
Y97043D01*
X217056Y89694D02*
X222805Y95443D01*
X209560Y90991D02*
X210856Y89694D01*
X209560Y90991D02*
Y92714D01*
X217839Y70900D02*
X248829D01*
X253837Y65892D01*
X210856Y42450D02*
X217056D01*
X222805Y48199D02*
Y49799D01*
X217056Y42450D02*
X222805Y48199D01*
X209560Y43747D02*
X210856Y42450D01*
X209560Y43747D02*
Y45470D01*
X68232Y70900D02*
X99223D01*
X104231Y65892D01*
X61250Y42450D02*
X67450D01*
X73199Y48199D02*
Y49799D01*
X67450Y42450D02*
X73199Y48199D01*
X59953Y43747D02*
X61250Y42450D01*
X59953Y43747D02*
Y45470D01*
D30*
X108693Y100537D02*
D03*
Y112151D02*
D03*
X210976Y106714D02*
D03*
X215476Y102214D02*
D03*
Y106714D02*
D03*
Y111214D02*
D03*
X219976Y106714D02*
D03*
X246813Y91537D02*
D03*
Y103151D02*
D03*
X217839Y118144D02*
D03*
X225076Y120979D02*
D03*
X220089Y122327D02*
D03*
X212824D02*
D03*
X204206Y111744D02*
D03*
X226006Y104744D02*
D03*
X215506Y95444D02*
D03*
X221714Y90869D02*
D03*
X208706Y89144D02*
D03*
X179606Y117344D02*
D03*
Y112344D02*
D03*
Y102344D02*
D03*
X222805Y97043D02*
D03*
X211406Y89144D02*
D03*
X210976Y59470D02*
D03*
X215476Y54970D02*
D03*
Y59470D02*
D03*
Y63970D02*
D03*
X219976Y59470D02*
D03*
X273613Y59293D02*
D03*
Y70907D02*
D03*
X217839Y70900D02*
D03*
X225076Y73735D02*
D03*
X220089Y75083D02*
D03*
X212824D02*
D03*
X204206Y64500D02*
D03*
X226006Y57500D02*
D03*
X215506Y48200D02*
D03*
X221714Y43625D02*
D03*
X208706Y41900D02*
D03*
X179606Y70100D02*
D03*
Y65100D02*
D03*
Y55100D02*
D03*
X222805Y49799D02*
D03*
X211406Y41900D02*
D03*
X61370Y59470D02*
D03*
X65870Y54970D02*
D03*
Y59470D02*
D03*
Y63970D02*
D03*
X70370Y59470D02*
D03*
X68232Y70900D02*
D03*
X75470Y73735D02*
D03*
X70483Y75083D02*
D03*
X63217D02*
D03*
X54600Y64500D02*
D03*
X76400Y57500D02*
D03*
X65900Y48200D02*
D03*
X72108Y43625D02*
D03*
X59100Y41900D02*
D03*
X30000Y70100D02*
D03*
Y65100D02*
D03*
Y55100D02*
D03*
X73199Y49799D02*
D03*
X61800Y41900D02*
D03*
D31*
X243506Y64970D02*
D03*
Y59970D02*
D03*
Y54970D02*
D03*
X248506Y64970D02*
D03*
Y59970D02*
D03*
Y54970D02*
D03*
Y49970D02*
D03*
Y44970D02*
D03*
X253506Y54970D02*
D03*
Y49970D02*
D03*
Y44970D02*
D03*
X93900Y64970D02*
D03*
Y59970D02*
D03*
Y54970D02*
D03*
X98900Y64970D02*
D03*
Y59970D02*
D03*
Y54970D02*
D03*
Y49970D02*
D03*
Y44970D02*
D03*
X103900Y54970D02*
D03*
Y49970D02*
D03*
Y44970D02*
D03*
D32*
X214993Y92714D02*
D03*
X209560D02*
D03*
X214993Y45470D02*
D03*
X209560D02*
D03*
X65387D02*
D03*
X59953D02*
D03*
D33*
X253837Y113136D02*
D03*
X214467D02*
D03*
X253837Y65892D02*
D03*
X214467D02*
D03*
X104231D02*
D03*
X64861D02*
D03*
M02*
