G04*
G04 #@! TF.GenerationSoftware,Altium Limited,Altium Designer,21.7.2 (23)*
G04*
G04 Layer_Physical_Order=2*
G04 Layer_Color=16711680*
%FSLAX25Y25*%
%MOIN*%
G70*
G04*
G04 #@! TF.SameCoordinates,16A7C8A8-E98D-4737-908B-F8D707F188AB*
G04*
G04*
G04 #@! TF.FilePolarity,Positive*
G04*
G01*
G75*
%ADD10C,0.00050*%
%ADD13R,0.03937X0.03937*%
%ADD26C,0.00800*%
%ADD29C,0.02000*%
%ADD30C,0.02400*%
G04:AMPARAMS|DCode=31|XSize=700.79mil|YSize=354.33mil|CornerRadius=88.58mil|HoleSize=0mil|Usage=FLASHONLY|Rotation=180.000|XOffset=0mil|YOffset=0mil|HoleType=Round|Shape=RoundedRectangle|*
%AMROUNDEDRECTD31*
21,1,0.70079,0.17717,0,0,180.0*
21,1,0.52362,0.35433,0,0,180.0*
1,1,0.17717,-0.26181,0.08858*
1,1,0.17717,0.26181,0.08858*
1,1,0.17717,0.26181,-0.08858*
1,1,0.17717,-0.26181,-0.08858*
%
%ADD31ROUNDEDRECTD31*%
%ADD32R,0.09843X0.20079*%
G36*
X180142Y220311D02*
X182486Y219805D01*
X184752Y219019D01*
X186905Y217964D01*
X188915Y216655D01*
X190751Y215111D01*
X192385Y213357D01*
X193795Y211417D01*
X194959Y209320D01*
X195860Y207097D01*
X196484Y204782D01*
X196823Y202408D01*
X196846Y201209D01*
D01*
Y201209D01*
Y201209D01*
X188970D01*
X188892Y202225D01*
X188475Y204219D01*
X187722Y206112D01*
X186655Y207847D01*
X185306Y209373D01*
X183714Y210644D01*
X181928Y211623D01*
X180000Y212281D01*
X177988Y212597D01*
X175951Y212563D01*
X173950Y212180D01*
X172045Y211459D01*
X170293Y210421D01*
X168744Y209097D01*
X167447Y207527D01*
X166438Y205757D01*
X165748Y203840D01*
X165398Y201834D01*
Y199797D01*
X165748Y197790D01*
X166438Y195873D01*
X167447Y194103D01*
X168744Y192533D01*
X170293Y191210D01*
X172045Y190172D01*
X173950Y189450D01*
X175951Y189067D01*
X177988Y189033D01*
X180000Y189349D01*
X181928Y190007D01*
X183714Y190986D01*
X185306Y192257D01*
X186655Y193783D01*
X187722Y195518D01*
X188475Y197411D01*
X188892Y199405D01*
X188970Y200421D01*
X188970Y200421D01*
X196846D01*
X196823Y199223D01*
X196484Y196848D01*
X195860Y194533D01*
X194959Y192310D01*
X193795Y190214D01*
X192385Y188274D01*
X190751Y186519D01*
X188915Y184976D01*
X186905Y183667D01*
X184752Y182611D01*
X182486Y181825D01*
X180142Y181319D01*
X177754Y181102D01*
X175357Y181177D01*
X172986Y181541D01*
X170678Y182191D01*
X168465Y183116D01*
X166382Y184303D01*
X164457Y185734D01*
X162721Y187388D01*
X161198Y189241D01*
X159911Y191264D01*
X158879Y193429D01*
X158118Y195703D01*
X157878Y196878D01*
X156870D01*
Y181918D01*
X30343D01*
Y219657D01*
X156870D01*
Y204752D01*
X157878Y204752D01*
X158118Y205927D01*
X158879Y208201D01*
X159911Y210366D01*
X161198Y212390D01*
X162721Y214242D01*
X164457Y215896D01*
X166382Y217327D01*
X168465Y218514D01*
X170678Y219439D01*
X172986Y220089D01*
X175357Y220454D01*
X177754Y220528D01*
X180142Y220311D01*
D02*
G37*
G36*
X196035Y134674D02*
X42913D01*
Y172413D01*
X196035D01*
Y134674D01*
D02*
G37*
G36*
Y87430D02*
X42913D01*
Y125169D01*
X196035D01*
Y87430D01*
D02*
G37*
G36*
X180142Y78578D02*
X182486Y78073D01*
X184752Y77287D01*
X186905Y76231D01*
X188915Y74922D01*
X190751Y73379D01*
X192385Y71624D01*
X193795Y69684D01*
X194959Y67588D01*
X195860Y65365D01*
X196484Y63050D01*
X196823Y60675D01*
X196846Y59477D01*
D01*
Y59477D01*
Y59477D01*
X188970D01*
X188892Y60493D01*
X188475Y62487D01*
X187722Y64380D01*
X186655Y66115D01*
X185306Y67641D01*
X183714Y68912D01*
X181928Y69891D01*
X180000Y70549D01*
X177988Y70865D01*
X175951Y70831D01*
X173950Y70448D01*
X172045Y69726D01*
X170293Y68688D01*
X168744Y67365D01*
X167447Y65794D01*
X166438Y64025D01*
X165748Y62108D01*
X165398Y60101D01*
Y58064D01*
X165748Y56058D01*
X166438Y54141D01*
X167447Y52371D01*
X168744Y50801D01*
X170293Y49477D01*
X172045Y48439D01*
X173950Y47718D01*
X175951Y47334D01*
X177988Y47300D01*
X180000Y47617D01*
X181928Y48274D01*
X183714Y49254D01*
X185306Y50525D01*
X186655Y52051D01*
X187722Y53786D01*
X188475Y55679D01*
X188892Y57673D01*
X188970Y58689D01*
X188970Y58689D01*
X196846D01*
X196823Y57490D01*
X196484Y55116D01*
X195860Y52801D01*
X194959Y50578D01*
X193795Y48481D01*
X192385Y46541D01*
X190751Y44787D01*
X188915Y43243D01*
X186905Y41934D01*
X184752Y40879D01*
X182486Y40093D01*
X180142Y39587D01*
X177754Y39370D01*
X175357Y39444D01*
X172986Y39809D01*
X170678Y40459D01*
X168465Y41384D01*
X166382Y42571D01*
X164457Y44002D01*
X162721Y45656D01*
X161198Y47508D01*
X159911Y49532D01*
X158879Y51697D01*
X158118Y53971D01*
X157878Y55146D01*
X156870D01*
Y40186D01*
X42913D01*
Y77925D01*
X156870D01*
Y63020D01*
X157878Y63020D01*
X158118Y64195D01*
X158879Y66469D01*
X159911Y68634D01*
X161198Y70657D01*
X162721Y72510D01*
X164457Y74164D01*
X166382Y75595D01*
X168465Y76782D01*
X170678Y77707D01*
X172986Y78356D01*
X175357Y78721D01*
X177754Y78796D01*
X180142Y78578D01*
D02*
G37*
%LPC*%
G36*
X152756Y203543D02*
X139370D01*
Y198031D01*
X152756D01*
Y203543D01*
D02*
G37*
G36*
X125591Y166777D02*
X125044Y166668D01*
X124581Y166358D01*
X124272Y165895D01*
X124163Y165349D01*
X124272Y164803D01*
X124486Y164483D01*
X124301Y164024D01*
X124264Y163983D01*
X120269D01*
Y143104D01*
X130912D01*
Y163983D01*
X126917D01*
X126880Y164024D01*
X126695Y164483D01*
X126909Y164803D01*
X127018Y165349D01*
X126909Y165895D01*
X126600Y166358D01*
X126137Y166668D01*
X125591Y166777D01*
D02*
G37*
G36*
X146457Y146063D02*
X133071D01*
Y140551D01*
X146457D01*
Y146063D01*
D02*
G37*
G36*
X174803Y109055D02*
X161417D01*
Y103543D01*
X174803D01*
Y109055D01*
D02*
G37*
G36*
X125591Y119533D02*
X125044Y119424D01*
X124581Y119114D01*
X124272Y118651D01*
X124163Y118105D01*
X124272Y117559D01*
X124486Y117239D01*
X124301Y116780D01*
X124264Y116739D01*
X120269D01*
Y95860D01*
X130912D01*
Y116739D01*
X126917D01*
X126880Y116780D01*
X126695Y117239D01*
X126909Y117559D01*
X127018Y118105D01*
X126909Y118651D01*
X126600Y119114D01*
X126137Y119424D01*
X125591Y119533D01*
D02*
G37*
G36*
Y72288D02*
X125044Y72180D01*
X124581Y71870D01*
X124272Y71407D01*
X124163Y70861D01*
X124272Y70315D01*
X124486Y69994D01*
X124301Y69536D01*
X124264Y69494D01*
X120269D01*
Y48616D01*
X130912D01*
Y69494D01*
X126917D01*
X126880Y69536D01*
X126695Y69994D01*
X126909Y70315D01*
X127018Y70861D01*
X126909Y71407D01*
X126600Y71870D01*
X126137Y72180D01*
X125591Y72288D01*
D02*
G37*
%LPD*%
D10*
X157878Y196878D02*
G03*
X196846Y200421I19287J3937D01*
G01*
X188970Y201209D02*
G03*
X188970Y200421I-11804J-394D01*
G01*
X196846Y201209D02*
G03*
X157878Y204752I-19681J-394D01*
G01*
X156693Y196878D02*
X157878D01*
X156693D02*
Y204752D01*
X157878D01*
X188970Y200421D02*
X196846D01*
X188970Y201209D02*
X196846D01*
X157878Y55146D02*
G03*
X196846Y58689I19287J3937D01*
G01*
X188970Y59477D02*
G03*
X188970Y58689I-11804J-394D01*
G01*
X196846Y59477D02*
G03*
X157878Y63020I-19681J-394D01*
G01*
X156693Y55146D02*
X157878D01*
X156693D02*
Y63020D01*
X157878D01*
X188970Y58689D02*
X196846D01*
X188970Y59477D02*
X196846D01*
D13*
X159449Y200815D02*
D03*
Y59083D02*
D03*
D26*
X125591Y153543D02*
Y165748D01*
X35433Y141732D02*
Y153543D01*
Y165354D01*
X125591Y106299D02*
Y118504D01*
X35433Y94488D02*
Y106299D01*
Y118110D01*
X125591Y59055D02*
Y71260D01*
X35433Y47244D02*
Y59055D01*
Y70866D01*
D29*
X149606Y194882D02*
D03*
Y206693D02*
D03*
X109740Y153958D02*
D03*
X105240Y158458D02*
D03*
Y153958D02*
D03*
Y149458D02*
D03*
X100740Y153958D02*
D03*
X136221Y149213D02*
D03*
Y137402D02*
D03*
X125591Y165349D02*
D03*
X111478Y138113D02*
D03*
X35433Y141732D02*
D03*
Y165354D02*
D03*
X109853Y169571D02*
D03*
X93970Y158988D02*
D03*
X114840Y168224D02*
D03*
X105270Y142688D02*
D03*
X98470Y136388D02*
D03*
X115770Y151988D02*
D03*
X69370Y149588D02*
D03*
X102587Y169571D02*
D03*
X69370Y159588D02*
D03*
Y164588D02*
D03*
X109740Y106714D02*
D03*
X105240Y111214D02*
D03*
Y106714D02*
D03*
Y102214D02*
D03*
X100740Y106714D02*
D03*
X164961Y112205D02*
D03*
Y100394D02*
D03*
X125591Y118105D02*
D03*
X111478Y90869D02*
D03*
X35433Y94488D02*
D03*
Y118110D02*
D03*
X109853Y122327D02*
D03*
X93970Y111744D02*
D03*
X114840Y120979D02*
D03*
X105270Y95444D02*
D03*
X98470Y89144D02*
D03*
X115770Y104744D02*
D03*
X69370Y102344D02*
D03*
X102587Y122327D02*
D03*
X69370Y112344D02*
D03*
Y117344D02*
D03*
X109740Y59470D02*
D03*
X105240Y63970D02*
D03*
Y59470D02*
D03*
Y54970D02*
D03*
X100740Y59470D02*
D03*
X125591Y70861D02*
D03*
X111478Y43625D02*
D03*
X35433Y47244D02*
D03*
Y70866D02*
D03*
X109853Y75083D02*
D03*
X93970Y64500D02*
D03*
X114840Y73735D02*
D03*
X105270Y48200D02*
D03*
X98470Y41900D02*
D03*
X115770Y57500D02*
D03*
X69370Y55100D02*
D03*
X102587Y75083D02*
D03*
X69370Y65100D02*
D03*
Y70100D02*
D03*
D30*
X134370Y111969D02*
D03*
Y106968D02*
D03*
Y101969D02*
D03*
X139370Y111969D02*
D03*
Y106968D02*
D03*
Y101969D02*
D03*
Y96969D02*
D03*
Y91969D02*
D03*
X144370Y101969D02*
D03*
Y96969D02*
D03*
Y91969D02*
D03*
X134370Y64724D02*
D03*
Y59724D02*
D03*
Y54724D02*
D03*
X139370Y64724D02*
D03*
Y59724D02*
D03*
Y54724D02*
D03*
Y49724D02*
D03*
Y44724D02*
D03*
X144370Y54724D02*
D03*
Y49724D02*
D03*
Y44724D02*
D03*
D31*
X80512Y153543D02*
D03*
Y106299D02*
D03*
Y59055D02*
D03*
D32*
X125591Y153543D02*
D03*
X35433D02*
D03*
X125591Y106299D02*
D03*
X35433D02*
D03*
X125591Y59055D02*
D03*
X35433D02*
D03*
M02*
