M48
;Layer_Color=9474304
;FILE_FORMAT=2:5
INCH,LZ
;TYPE=PLATED
T1F00S00C0.01000
T2F00S00C0.02000
%
T01
X003Y00551
Y00651
Y00701
X00546Y00645
X006137Y005947
X006587
Y005497
X00659Y00482
X0073199Y0049799
X0072108Y0043625
X00618Y00419
X00591
X006587Y006397
X007037Y005947
X00764Y00575
X007547Y0073735
X0070483Y0075083
X0068232Y00709
X0063217Y0075083
X0108693Y0100537
Y0112151
X0179606Y0112344
Y0117344
Y0102344
X0179606Y00701
Y00651
Y00551
X0204206Y00645
X0210976Y005947
X0215476
Y005497
X0215506Y00482
X0222805Y0049799
X0221714Y0043625
X0211406Y00419
X0208706
X0215476Y006397
X0219976Y005947
X0226006Y00575
X0225076Y0073735
X0220089Y0075083
X0217839Y00709
X0212824Y0075083
X0211406Y0089144
X0208706
X0215506Y0095444
X0215476Y0102214
Y0106714
X0210976
X0215476Y0111214
X0219976Y0106714
X0226006Y0104744
X0222805Y0097043
X0221714Y0090869
X0246813Y0091537
Y0103151
X0225076Y0120979
X0220089Y0122327
X0217839Y0118144
X0212824Y0122327
X0204206Y0111744
X0273613Y0070907
Y0059293
T02
X00989Y004497
Y004997
Y005497
X00939
Y005997
Y006497
X00989
Y005997
X01039Y005497
Y004997
Y004497
X0248506
Y004997
Y005497
X0243506
Y005997
Y006497
X0248506
Y005997
X0253506Y005497
Y004997
Y004497
M30
