M48
;Layer_Color=9474304
;FILE_FORMAT=2:5
INCH,LZ
;TYPE=PLATED
T1F00S00C0.01000
T2F00S00C0.02000
%
T01
X0035433Y0047244
Y0070866
Y0094488
Y011811
Y0141732
X006937Y0149588
Y0117344
Y0112344
Y0102344
Y00701
Y00651
Y00551
X009397Y00645
X010524Y006397
Y005947
X010974
X011577Y00575
X010524Y005497
X010527Y00482
X0111478Y0043625
X009847Y00419
X010074Y005947
X0102587Y0075083
X0109853
X011484Y0073735
X0125591Y0070861
X0111478Y0090869
X010527Y0095444
X010524Y0102214
Y0106714
X010974
X011577Y0104744
X010524Y0111214
X010074Y0106714
X009397Y0111744
X0102587Y0122327
X0109853
X011484Y0120979
X0125591Y0118105
X0136221Y0137402
Y0149213
X011577Y0151988
X010974Y0153958
X010524
Y0149458
X010527Y0142688
X0111478Y0138113
X009847Y0136388
X010074Y0153958
X009847Y0089144
X0164961Y0100394
Y0112205
X0125591Y0165349
X011484Y0168224
X0109853Y0169571
X0102587
X010524Y0158458
X009397Y0158988
X006937Y0159588
Y0164588
X0035433Y0165354
X0149606Y0194882
Y0206693
T02
X013937Y0044724
Y0049724
Y0054724
X013437
Y0059724
Y0064724
X013937
Y0059724
X014437Y0054724
Y0049724
Y0044724
Y0091969
X013937
Y0096969
Y0101969
X013437
Y0106968
Y0111969
X013937
Y0106968
X014437Y0101969
Y0096969
M30
